<?xml version="1.0" encoding="UTF-8"?>
<svg version="1.1" xmlns="http://www.w3.org/2000/svg" width="1024" height="512">
<path d="M0 0 C337.92 0 675.84 0 1024 0 C1024 168.96 1024 337.92 1024 512 C686.08 512 348.16 512 0 512 C0 343.04 0 174.08 0 0 Z " fill="#019AFE" transform="translate(0,0)"/>
<path d="M0 0 C0.8331712 -0.00981429 1.66634239 -0.01962858 2.5247612 -0.02974027 C3.89765242 -0.01533276 3.89765242 -0.01533276 5.29827881 -0.00063419 C6.27061085 -0.00616859 7.24294289 -0.01170299 8.24473953 -0.01740509 C11.51772523 -0.03106785 14.78995578 -0.01601161 18.06292725 -0.00113773 C20.40330328 -0.00491885 22.74367707 -0.01041718 25.08404541 -0.01751041 C31.45172929 -0.03150918 37.81914431 -0.02026411 44.18681335 -0.0037992 C50.16613164 0.0086181 56.14543128 0.00444405 62.12475634 0.00107109 C73.97268095 -0.0048106 85.82049936 0.0093761 97.668396 0.03401852 C109.17104066 0.05794023 120.67354342 0.0650232 132.1762085 0.05452633 C144.69489597 0.04312279 157.21351777 0.04118006 169.73220444 0.05562443 C176.36154294 0.06320547 182.99083556 0.06704794 189.62017822 0.06112003 C195.85163569 0.0563598 202.08289588 0.06641245 208.3143158 0.08807468 C210.60610794 0.09365573 212.89791899 0.09409586 215.18971252 0.08912182 C218.30880506 0.08319951 221.4272882 0.09561552 224.54632568 0.1128912 C225.46158649 0.10688115 226.37684731 0.10087111 227.31984329 0.09467894 C228.56960009 0.10733885 228.56960009 0.10733885 229.84460449 0.12025452 C230.56482662 0.12128365 231.28504875 0.12231278 232.02709579 0.12337309 C234.61082897 0.63760699 235.43538067 1.32372101 236.92230225 3.50057125 C237.29719907 6.22408015 237.29719907 6.22408015 237.29703236 9.59570312 C237.3042389 10.87884905 237.31144544 12.16199497 237.31887037 13.48402411 C237.31169258 14.91622272 237.30423365 16.34841995 237.29652405 17.78061581 C237.29926284 19.29558416 237.30331336 20.81055063 237.3085677 22.32551235 C237.31918986 26.49932473 237.31100285 30.67292405 237.2998172 34.84672725 C237.29099921 39.34369694 237.29941171 43.84063803 237.30567932 48.33760738 C237.31518319 57.1511417 237.30855374 65.96459434 237.29641638 74.77812261 C237.28281844 85.03290197 237.28443226 95.28766171 237.28654971 105.5424478 C237.28974187 123.83376292 237.27805853 142.12503915 237.25848389 160.41634274 C237.23947597 178.18263083 237.23239678 195.94887333 237.23797607 213.71517086 C237.24402783 233.04322473 237.2438681 252.37125852 237.23249024 271.69931072 C237.2312829 273.75848575 237.23007691 275.81766079 237.2288723 277.87683582 C237.22826876 278.8900979 237.22766522 279.90335998 237.22704339 280.94732698 C237.22315704 288.1028547 237.22356063 295.25837497 237.22545815 302.41390324 C237.22757576 311.12809309 237.22238894 319.84224291 237.20784459 328.55642147 C237.20057907 333.00621841 237.19654187 337.45595694 237.20108795 341.90575886 C237.2051429 345.97363661 237.20006062 350.04139336 237.18746188 354.10925268 C237.18451654 355.58630578 237.18499201 357.06337017 237.18910495 358.54042048 C237.19416366 360.53737165 237.18587286 362.53434366 237.17677784 364.53128052 C237.17591106 365.64375375 237.17504429 366.75622698 237.17415124 367.90241152 C236.92230225 370.50057125 236.92230225 370.50057125 234.92230225 372.50057125 C231.78070719 372.70100339 228.72692166 372.77408649 225.58392334 372.76126766 C224.60357306 372.76509321 223.62322277 372.76891876 222.6131649 372.77286023 C219.30730296 372.7832314 216.00161338 372.7791903 212.69573975 372.77522945 C210.33418618 372.77957362 207.97263402 372.78475577 205.61108398 372.79071712 C199.85014573 372.80275247 194.08926171 372.8052548 188.3283124 372.80291686 C183.64778403 372.80113642 178.96726984 372.80287743 174.28674316 372.8071413 C173.62150489 372.80773649 172.95626662 372.80833168 172.27086961 372.80894491 C170.91960414 372.81015661 169.56833867 372.81137074 168.2170732 372.81258728 C155.53545665 372.8234721 142.85386666 372.82129577 130.1722486 372.81520244 C118.55981189 372.81003136 106.94745902 372.82129205 95.3350389 372.84030066 C83.42236724 372.85965187 71.5097353 372.86793991 59.59704781 372.86417741 C52.90455492 372.86226136 46.21213343 372.86479209 39.51965332 372.87889194 C33.22913753 372.89141081 26.9387903 372.88958281 20.64827728 372.87648106 C18.33348282 372.8741028 16.0186767 372.87689421 13.70389557 372.88510418 C10.55595801 372.89546805 7.40859708 372.88755492 4.26068115 372.87479305 C3.33404348 372.88216734 2.40740582 372.88954162 1.45268822 372.89713937 C0.61392458 372.88993283 -0.22483906 372.88272628 -1.08901978 372.87530136 C-1.81623922 372.87535638 -2.54345867 372.87541139 -3.29271507 372.87546808 C-5.07769775 372.50057125 -5.07769775 372.50057125 -7.07769775 369.50057125 C-7.32954675 366.79218775 -7.32954675 366.79218775 -7.33217335 363.44226074 C-7.33800554 362.16731501 -7.34383773 360.89236927 -7.34984666 359.57878882 C-7.34621311 358.15582962 -7.34238872 356.73287091 -7.33839417 355.30991268 C-7.34141283 353.80462022 -7.34530087 352.29932929 -7.34998673 350.7940411 C-7.36031226 346.64694091 -7.35807339 342.49992672 -7.35380614 338.35281932 C-7.35134714 333.88444155 -7.36034274 329.41608492 -7.36784363 324.94771481 C-7.38061567 316.18967905 -7.38238121 307.43167392 -7.38004337 298.67363042 C-7.37826287 291.55750384 -7.38000407 284.44138658 -7.38426781 277.32526112 C-7.384863 276.31381562 -7.38545819 275.30237013 -7.38607141 274.26027478 C-7.38728312 272.2057573 -7.38849725 270.15123983 -7.38971379 268.09672236 C-7.40059894 248.81436757 -7.3984222 229.53203026 -7.39232894 210.24967449 C-7.38715868 192.59569497 -7.39841636 174.9417706 -7.41742716 157.28780199 C-7.43678216 139.17584371 -7.44506569 121.06391156 -7.44130391 102.95194286 C-7.43938833 92.77737929 -7.44191401 82.60286269 -7.45601845 72.42830753 C-7.46790346 63.76686785 -7.46936961 55.10550404 -7.45722828 46.44406337 C-7.45131932 42.02234083 -7.45029553 37.60075724 -7.46223068 33.17904377 C-7.4730213 29.13445703 -7.47006822 25.09012642 -7.455969 21.04555201 C-7.45330313 19.57922774 -7.45574733 18.11288384 -7.46370486 16.64657874 C-7.47374442 14.65931526 -7.46363777 12.67198012 -7.45242786 10.6847229 C-7.45248288 9.57908464 -7.4525379 8.47344637 -7.45259458 7.33430392 C-6.80973082 2.47508956 -5.00615952 0.00074608 0 0 Z " fill="#E1455C" transform="translate(670.0776977539063,43.49942874908447)"/>
<path d="M0 0 C0.84772148 -0.00782324 1.69544295 -0.01564648 2.56885296 -0.02370679 C3.96611305 -0.01366855 3.96611305 -0.01366855 5.39160061 -0.00342751 C6.38097242 -0.00810748 7.37034424 -0.01278745 8.38969702 -0.01760924 C11.72017289 -0.02961925 15.05024183 -0.02007849 18.38072109 -0.01066017 C20.76212715 -0.01472317 23.14353133 -0.02006352 25.52493191 -0.02659035 C31.33054558 -0.03887597 37.13602892 -0.03704182 42.94164664 -0.02835242 C47.65838741 -0.02158427 52.37509556 -0.02065538 57.09183979 -0.02392387 C57.76249329 -0.02438357 58.4331468 -0.02484327 59.12412314 -0.0253169 C60.48642108 -0.02627605 61.84871902 -0.02724869 63.21101695 -0.02823468 C75.99184834 -0.03679388 88.77261522 -0.0269458 101.55343603 -0.01083358 C112.52812324 0.00257317 123.50271528 0.00023964 134.47740078 -0.01358986 C147.21324924 -0.02963106 159.94904116 -0.03597309 172.68489832 -0.02675307 C174.0419505 -0.02579739 175.39900268 -0.02485428 176.75605488 -0.02392387 C177.42380318 -0.02346105 178.09155147 -0.02299822 178.77953457 -0.02252137 C183.49299074 -0.01992731 188.20641115 -0.02431133 192.91986179 -0.03136253 C199.25882621 -0.04000012 205.59761009 -0.03406914 211.93655491 -0.01667976 C214.26908473 -0.01269789 216.60162964 -0.01387779 218.93415356 -0.02046776 C222.10613128 -0.02860619 225.27752211 -0.01845526 228.44946194 -0.00342751 C229.85006811 -0.01346575 229.85006811 -0.01346575 231.27896935 -0.02370679 C232.54663994 -0.01197193 232.54663994 -0.01197193 233.83992004 0 C234.9390494 0.00073059 234.9390494 0.00073059 236.06038338 0.00147593 C237.85703945 0.37752342 237.85703945 0.37752342 239.85703945 3.37752342 C240.10773778 5.53677374 240.10773778 5.53677374 240.10872173 8.09832668 C240.11393723 9.0749338 240.11915272 10.05154091 240.12452626 11.05774218 C240.12006482 12.13321399 240.11560338 13.2086858 240.11100674 14.31674767 C240.11412672 15.45721092 240.1172467 16.59767417 240.12046123 17.77269691 C240.12707246 20.94314874 240.12467379 24.11344823 240.11848879 27.28389633 C240.11397457 30.70110008 240.12094289 34.1182828 240.12644863 37.53548241 C240.13535504 44.23141663 240.13341517 50.92730609 240.12762335 57.62324209 C240.12311214 63.06318448 240.12249161 68.50311429 240.12467098 73.94305801 C240.12497745 74.71639988 240.12528391 75.48974175 240.12559967 76.28651823 C240.1262391 77.85738517 240.12688752 79.4282521 240.12754485 80.99911904 C240.1332517 95.73853461 240.12668449 110.47792533 240.11594412 125.21733683 C240.10700651 137.87483009 240.10856168 150.53228668 240.11778164 163.18977928 C240.12847496 177.87691332 240.13270421 192.56402556 240.12655711 207.25116295 C240.12591999 208.81604349 240.12529125 210.38092404 240.12467098 211.9458046 C240.12436243 212.71582497 240.12405388 213.48584535 240.12373598 214.27919968 C240.12200635 219.71550396 240.12492986 225.15179447 240.12963009 230.58809662 C240.13522844 237.20889272 240.13374452 243.82964137 240.1230686 250.45043201 C240.117798 253.83089701 240.11577862 257.2112828 240.12236691 260.59174728 C240.12779022 264.24967281 240.12102744 267.90737193 240.11100674 271.56528282 C240.11546818 272.64298535 240.11992962 273.72068789 240.12452626 274.83104807 C240.11931077 275.80504744 240.11409527 276.7790468 240.10872173 277.7825613 C240.10839703 278.62771142 240.10807232 279.47286154 240.10773778 280.34362227 C239.85703945 282.37752342 239.85703945 282.37752342 237.85703945 284.37752342 C236.06975543 284.63233244 236.06975543 284.63233244 233.86277485 284.63923645 C233.02277781 284.64670194 232.18278078 284.65416744 231.31732929 284.66185915 C230.38932738 284.65992442 229.46132547 284.65798969 228.50520229 284.65599632 C227.52344088 284.66178872 226.54167946 284.66758113 225.5301677 284.67354906 C222.21965869 284.69063986 218.90928832 284.69343334 215.59873867 284.69637108 C213.2339382 284.70566299 210.86914103 284.71583055 208.5043478 284.72681236 C202.73607807 284.75136064 196.96783571 284.76673532 191.19952618 284.77812745 C184.48924951 284.79187021 177.77902902 284.81682971 171.06878914 284.84251074 C159.10157734 284.88801214 147.13435545 284.92461307 135.16709805 284.95564842 C123.54012689 284.98582028 111.91318043 285.02016424 100.28623867 285.06014061 C99.56988518 285.06260216 98.85353169 285.06506371 98.11547051 285.06759985 C94.52183444 285.07997418 90.92819866 285.09243077 87.33456302 285.10492826 C57.50875605 285.20854616 27.68291986 285.29758508 -2.14296055 285.37752342 C-2.14073994 286.12032555 -2.13851933 286.86312767 -2.13623142 287.62843895 C-2.11618604 294.63207588 -2.10096472 301.63570286 -2.09114838 308.63936043 C-2.08593204 312.23991941 -2.07885705 315.84045466 -2.0675211 319.44099998 C-2.05664785 322.91636704 -2.05067429 326.39171129 -2.04808331 329.86709404 C-2.04533917 331.83686641 -2.03753417 333.80662961 -2.02966404 335.77638817 C-2.02958851 336.97733116 -2.02951298 338.17827415 -2.02943516 339.41560936 C-2.02721455 340.47262047 -2.02499393 341.52963158 -2.02270603 342.61867332 C-2.12845318 345.04469879 -2.44211924 347.06361677 -3.14296055 349.37752342 C-13.55868391 348.90577433 -23.94093443 348.25861111 -34.33046055 347.37752342 C-44.05826052 346.55368293 -53.77054653 346.02321332 -63.5284586 345.7193203 C-64.46987705 345.68773827 -65.41129551 345.65615623 -66.3812418 345.62361717 C-67.20664463 345.59968895 -68.03204746 345.57576073 -68.8824625 345.55110741 C-71.07565849 345.38269156 -73.03122187 344.97867089 -75.14296055 344.37752342 C-75.15230625 343.77770653 -75.16165195 343.17788963 -75.17128086 342.55989647 C-75.53521667 323.04473053 -76.76460717 303.59833288 -78.08046055 284.12752342 C-78.16582066 282.84638664 -78.25118076 281.56524986 -78.33912754 280.24529076 C-79.21439271 267.17652165 -80.14785256 254.14051207 -81.69886875 241.13289452 C-82.3214276 235.86835345 -82.80940031 230.59598351 -83.26796055 225.31502342 C-83.35432774 224.37465233 -83.44069492 223.43428123 -83.5296793 222.46541405 C-84.03061628 216.7443957 -84.225253 211.12036092 -84.14296055 205.37752342 C-79.0469607 209.05805028 -74.48294745 212.82053718 -70.14296055 217.37752342 C-63.42663651 215.27013419 -57.31207476 212.18438366 -51.01796055 209.06502342 C-49.83846836 208.49590233 -48.65897617 207.92678123 -47.4437418 207.34041405 C-46.31065586 206.77902733 -45.17756992 206.21764061 -44.01014805 205.63924217 C-42.98002598 205.13352684 -41.94990391 204.62781151 -40.88856602 204.10677147 C-36.75679701 201.50448444 -34.02261759 198.36606583 -32.89296055 193.56502342 C-32.64546055 192.51314842 -32.39796055 191.46127342 -32.14296055 190.37752342 C-28.53924392 189.87424345 -24.93491858 189.37546349 -21.33046055 188.87752342 C-20.30630039 188.73443748 -19.28214024 188.59135155 -18.22694492 188.44392967 C-17.24403477 188.30857811 -16.26112461 188.17322655 -15.2484293 188.03377342 C-14.34246006 187.90808983 -13.43649082 187.78240623 -12.50306797 187.65291405 C-10.14296055 187.37752342 -10.14296055 187.37752342 -7.14296055 187.37752342 C-7.14572593 186.43200206 -7.14849131 185.48648069 -7.15134048 184.51230717 C-7.21787537 161.52859164 -7.26720747 138.54488857 -7.29839706 115.56109715 C-7.31388018 104.44640434 -7.33499726 93.33177506 -7.36927891 82.21712303 C-7.39913708 72.53203249 -7.41852503 62.84698795 -7.42522603 53.16185266 C-7.42914437 48.03143166 -7.43838292 42.90114229 -7.46015072 37.7707634 C-7.48045933 32.94536374 -7.48680578 28.1201504 -7.48228359 23.29471207 C-7.48311132 21.52053631 -7.48911038 19.74635455 -7.50057697 17.97221565 C-7.51543331 15.55579181 -7.51193964 13.14007771 -7.5037241 10.72363853 C-7.51246262 10.01644257 -7.52120115 9.30924661 -7.53020447 8.58062047 C-7.48637467 3.83365964 -7.48637467 3.83365964 -5.87882411 1.69844741 C-3.74300164 0.0731704 -2.66314798 0.00176979 0 0 Z " fill="#FCAB3D" transform="translate(397.1429605484009,44.62247657775879)"/>
<path d="M0 0 C0.84075469 -0.00981429 1.68150937 -0.01962858 2.54774147 -0.02974027 C3.93332871 -0.01533276 3.93332871 -0.01533276 5.34690762 -0.00063419 C6.81871468 -0.00893579 6.81871468 -0.00893579 8.32025522 -0.01740509 C11.62321162 -0.03106826 14.92541978 -0.01601141 18.22836208 -0.00113773 C20.59006478 -0.00491881 22.95176527 -0.01041711 25.31346035 -0.01751041 C31.73892564 -0.03150894 38.16412448 -0.02026462 44.58957505 -0.0037992 C50.62212769 0.01029379 56.65468311 0.00444427 62.6872453 0.00107109 C74.6394718 -0.00481044 86.59159301 0.00937611 98.54379177 0.03401852 C110.15027722 0.05794556 121.75662202 0.06502109 133.36312771 0.05452633 C145.99350676 0.04312628 158.62382072 0.04117531 171.25419897 0.05562443 C172.60001718 0.05715031 173.94583541 0.05867067 175.29165363 0.06018543 C176.28498375 0.06132215 176.28498375 0.06132215 177.29838114 0.06248184 C181.97276252 0.06723133 186.64710965 0.06536858 191.32148838 0.06112003 C197.60793411 0.05636313 203.89418408 0.06639844 210.18059254 0.08807468 C212.49376802 0.09366008 214.80696224 0.09409192 217.12013912 0.08912182 C220.26585467 0.08320837 223.4109637 0.09559812 226.55662441 0.1128912 C227.48257996 0.10688115 228.40853551 0.10087111 229.36255032 0.09467894 C230.61977073 0.10733885 230.61977073 0.10733885 231.90238953 0.12025452 C232.6290669 0.12128365 233.35574428 0.12231278 234.10444218 0.12337309 C235.88827419 0.50057125 235.88827419 0.50057125 237.88827419 3.50057125 C238.07695021 5.97473354 238.14927385 8.33499387 238.12878323 10.8087225 C238.13049208 11.55857585 238.13220093 12.30842921 238.13396156 13.08100539 C238.13726326 15.60075846 238.12624167 18.1202469 238.11532497 20.63997555 C238.11476101 22.44335073 238.11507714 24.24672637 238.11620998 26.05010128 C238.11678506 30.95269986 238.10500567 35.85520107 238.09106207 40.75777698 C238.07858053 45.87872722 238.07738625 50.99967956 238.07501125 56.12064266 C238.0687889 65.82099778 238.05236786 75.52130796 238.03231227 85.22164327 C238.00997677 96.2638181 237.99896576 107.30599506 237.9889214 118.34818685 C237.96800229 141.06567326 237.93281164 163.78311974 237.88827419 186.50057125 C237.17585064 185.88025021 237.17585064 185.88025021 236.44903469 185.24739742 C235.82296322 184.70574947 235.19689175 184.16410152 234.55184841 183.60604 C233.62286236 182.80009396 233.62286236 182.80009396 232.67510891 181.97786617 C230.57602487 180.242414 228.3656599 178.86804806 226.01327419 177.50057125 C222.02742904 174.94259253 222.02742904 174.94259253 220.82577419 171.12557125 C220.84639919 170.25932125 220.86702419 169.39307125 220.88827419 168.50057125 C220.30561794 168.495415 219.72296169 168.49025875 219.12264919 168.48494625 C212.50783996 167.86090764 208.80801092 165.26473249 204.20077419 160.75057125 C203.65969021 160.23720211 203.11860622 159.72383297 202.56112576 159.19490719 C201.06405544 157.64119625 201.06405544 157.64119625 198.88827419 154.50057125 C199.03280544 151.42244625 199.03280544 151.42244625 199.88827419 148.50057125 C200.66780723 141.3027364 200.66780723 141.3027364 197.63827419 135.00057125 C193.16058861 130.92994799 190.01236393 130.08297516 184.06796169 130.25838375 C180.91252411 130.60898793 179.26940347 131.39157103 176.88827419 133.50057125 C173.4362504 138.35206414 172.22515213 141.42195238 172.88827419 147.50057125 C173.49928982 148.93336422 173.49928982 148.93336422 174.12264919 150.3951025 C174.88827419 153.50057125 174.88827419 153.50057125 173.61483669 156.07088375 C172.57456326 157.33545406 172.57456326 157.33545406 171.51327419 158.62557125 C170.77206326 159.57174313 170.03085232 160.517915 169.26718044 161.49275875 C168.08962185 162.98162594 168.08962185 162.98162594 166.88827419 164.50057125 C165.38256773 166.56480473 163.90252225 168.64803959 162.45077419 170.75057125 C161.79206326 171.6838525 161.13335232 172.61713375 160.45468044 173.57869625 C158.18164115 177.81867976 157.35438645 181.65249828 158.70077419 186.31307125 C161.23308346 188.84538052 162.07763174 188.84287446 165.51327419 189.31307125 C171.88623462 190.25027131 175.64846386 193.84087632 179.88827419 198.50057125 C179.88827419 198.83057125 179.88827419 199.16057125 179.88827419 199.50057125 C177.04375244 199.94139833 174.19912038 200.38149268 171.35433865 200.82063961 C168.94899433 201.19234045 166.5438849 201.56556434 164.13900661 201.94026852 C153.92540977 203.52296976 153.92540977 203.52296976 149.57186794 204.0357275 C130.61966889 206.29769332 114.33885931 213.90457441 100.88827419 227.50057125 C100.26565701 228.08967281 99.64303982 228.67877438 99.00155544 229.2857275 C91.18273024 237.28025664 85.50335563 249.68632469 82.88827419 260.50057125 C82.68589138 261.29205563 82.48350857 262.08354 82.27499294 262.89900875 C78.78885156 279.45225149 80.3255844 297.10872242 83.88827419 313.50057125 C84.05988064 314.32234859 84.23148708 315.14412594 84.40829372 315.99080563 C90.39074416 347.46619095 90.39074416 347.46619095 106.88827419 373.50057125 C111.55247112 374.09285023 113.72153279 374.14600266 117.82577419 371.87557125 C120.38293848 368.93095783 120.54267967 367.36368249 120.88827419 363.50057125 C120.58625462 360.92080618 120.21399183 358.47876146 119.70858669 355.9419775 C119.57636715 355.23459942 119.44414761 354.52722134 119.30792141 353.79840755 C118.88594596 351.55135656 118.45009695 349.30727833 118.01327419 347.06307125 C117.58664584 344.8219437 117.16289525 342.58029082 116.74005032 340.33844662 C116.47690007 338.94879244 116.21106266 337.55964331 115.94201565 336.17111874 C114.20250334 327.12916474 113.70545298 318.56471168 113.70077419 309.37557125 C113.6885281 308.132915 113.67628201 306.89025875 113.66366482 305.60994625 C113.63834787 289.44085509 115.35724509 273.55993702 126.82577419 261.30525875 C132.50465509 256.33623797 138.11810127 254.3779625 145.59921169 254.44979 C147.08493679 254.46078732 147.08493679 254.46078732 148.60067654 254.4720068 C149.35558376 254.48143307 150.11049099 254.49085934 150.88827419 254.50057125 C156.42558135 277.85036647 161.02615504 301.36168875 164.76327419 325.06307125 C164.87268337 325.74987972 164.98209255 326.43668819 165.09481716 327.14430904 C165.40402645 329.09681041 165.7049073 331.05062514 166.00546169 333.0044775 C166.17674587 334.11637447 166.34803005 335.22827145 166.52450466 336.37386227 C166.88216562 339.44806621 166.95403705 342.40884386 166.88827419 345.50057125 C168.20827419 345.50057125 169.52827419 345.50057125 170.88827419 345.50057125 C172.0401608 347.80434446 172.03615473 349.17249226 172.07772732 351.73714352 C172.09448009 352.61813213 172.11123287 353.49912075 172.12849331 354.40680599 C172.1420335 355.36716259 172.15557369 356.32751919 172.16952419 357.3169775 C172.18761639 358.31274303 172.20570858 359.30850857 172.22434902 360.33444881 C172.26289968 362.46972409 172.29941323 364.60503693 172.33410549 366.74037838 C172.42397719 372.25308299 172.5285358 377.76549673 172.63436794 383.277915 C172.65482677 384.35339596 172.67528561 385.42887691 172.6963644 386.5369482 C172.8709215 395.36697256 173.18137423 404.18366545 173.58138943 413.00643063 C173.90014789 420.17686649 174.00384796 427.32215607 173.88827419 434.50057125 C173.55827419 434.50057125 173.22827419 434.50057125 172.88827419 434.50057125 C172.88827419 432.19057125 172.88827419 429.88057125 172.88827419 427.50057125 C171.53321962 427.50610201 171.53321962 427.50610201 170.15079021 427.5117445 C148.1848538 427.60002485 126.2189479 427.66624643 104.25287151 427.70781994 C93.63029777 427.72845819 83.00784232 427.75660294 72.38534451 427.80232906 C63.12837164 427.84215814 53.87148445 427.86799487 44.61442828 427.87692523 C39.71140329 427.88214664 34.80862339 427.89444505 29.90567684 427.92349148 C25.29281272 427.95059852 20.68029517 427.95902581 16.06735897 427.95300198 C14.3726097 427.95410433 12.6778491 427.96208631 10.9831686 427.97739315 C8.67199501 427.99724807 6.36213586 427.99252789 4.05093288 427.98158932 C2.75673553 427.98527649 1.46253819 427.98896366 0.12912273 427.99276257 C-3.80977934 427.39455708 -4.72768815 426.64014109 -7.11172581 423.50057125 C-7.6119718 420.32173967 -7.6119718 420.32173967 -7.61229706 416.4758749 C-7.62056831 415.40960655 -7.62056831 415.40960655 -7.62900665 414.32179743 C-7.64265866 411.9273859 -7.62767493 409.53400233 -7.61293125 407.13960934 C-7.61682209 405.41071187 -7.62246079 403.6818176 -7.62970215 401.95293093 C-7.64450602 397.1923182 -7.6342464 392.43203457 -7.61996543 387.67143226 C-7.60888747 382.54116361 -7.62078769 377.41094234 -7.62980747 372.28067684 C-7.64376364 362.22665691 -7.63616623 352.1727623 -7.62113189 342.11874831 C-7.60429955 330.41842714 -7.60747854 318.71813743 -7.61122597 307.0178079 C-7.61710891 286.14598879 -7.60291598 265.27422995 -7.57827854 244.40242672 C-7.55435651 224.13450009 -7.54727374 203.86665399 -7.55777073 183.59871578 C-7.56917183 161.54548198 -7.57112 139.49228545 -7.55667263 117.4390521 C-7.55514674 115.08889707 -7.55362639 112.73874204 -7.55211163 110.388587 C-7.55135381 109.2321676 -7.550596 108.07574819 -7.54981522 106.88428578 C-7.54506614 98.72229227 -7.54692824 90.56031537 -7.55117702 82.39832211 C-7.55609621 72.45597731 -7.55015278 62.51370876 -7.53028273 52.57138145 C-7.52038946 47.49550355 -7.51532749 42.41974193 -7.52317524 37.34385777 C-7.53020584 32.70162506 -7.52348915 28.05962751 -7.50557161 23.41742593 C-7.50151003 21.73377528 -7.50255542 20.05010337 -7.50909048 18.3664605 C-7.5171885 16.0857781 -7.50699312 13.80589809 -7.49204254 11.5252676 C-7.49101341 10.25613223 -7.48998428 8.98699685 -7.48892397 7.67940283 C-6.88926183 2.62575957 -5.25696126 0.00077633 0 0 Z " fill="#01C776" transform="translate(126.11172580718994,44.49942874908447)"/>
<path d="M0 0 C4.324855 2.20322802 7.60172751 4.75690252 10 9 C10.52942248 13.45162283 10.37906897 17.63354661 9.1796875 21.95703125 C8.68272621 25.16299072 8.68272621 25.16299072 10.95703125 27.921875 C11.88519879 28.8878827 12.83867041 29.83004251 13.8125 30.75 C14.31007813 31.24024658 14.80765625 31.73049316 15.3203125 32.2355957 C19.42656434 36.0267317 22.61084643 36.89903537 28.00390625 37.4375 C28.66261719 37.623125 29.32132813 37.80875 30 38 C31.4375 41.6875 31.4375 41.6875 31.96875 43.84765625 C33.83221139 47.73692604 37.78098291 49.24116329 41.390625 51.3515625 C44.94496385 53.59696818 46.3189764 55.15766034 48 59 C48.59346415 63.15424905 48.31684106 65.33991445 46.5 69.125 C40.64821204 75.85455616 31.57874872 79.45169545 23.75 83.4375 C22.13738281 84.28731445 22.13738281 84.28731445 20.4921875 85.15429688 C19.45835937 85.67958984 18.42453125 86.20488281 17.359375 86.74609375 C16.42577148 87.22747803 15.49216797 87.7088623 14.53027344 88.20483398 C12 89 12 89 9.83984375 88.28979492 C7.10619447 86.37341101 4.68074705 84.15262913 2.25 81.875 C1.74339844 81.40707031 1.23679687 80.93914062 0.71484375 80.45703125 C-0.52719141 79.30873459 -1.76411494 78.15491328 -3 77 C-3.1045217 83.34596054 -2.70015372 89.55689349 -2.125 95.875 C-2.04636719 96.78507812 -1.96773438 97.69515625 -1.88671875 98.6328125 C-1.43676038 103.70003595 -0.91531744 108.75193663 -0.31536865 113.80368042 C1.2802321 127.41596883 2.19519588 141.07880589 3.125 154.75 C3.21471069 156.05361481 3.30442139 157.35722961 3.39685059 158.7003479 C4.6770376 177.49922604 5.61151811 196.15736981 5 215 C6.28575928 215.05534912 7.57151855 215.11069824 8.89624023 215.16772461 C13.69911088 215.37528357 18.50179877 215.58684015 23.30444336 215.79956055 C25.37698729 215.89080868 27.44957827 215.98099493 29.5222168 216.07006836 C32.51364142 216.19881686 35.50487202 216.33147379 38.49609375 216.46484375 C39.41208847 216.50343002 40.32808319 216.5420163 41.27183533 216.58177185 C56.55101014 217.27550507 56.55101014 217.27550507 60 219 C59.87765816 222.31640824 59.75524788 225.63281396 59.6328125 228.94921875 C59.59384354 230.00479477 59.55487457 231.06037079 59.51472473 232.14793396 C59.2950877 238.09392816 59.07487504 244.03990042 58.85375977 249.98583984 C58.76057864 252.49186195 58.66739831 254.99788409 58.57421875 257.50390625 C58.52691116 258.77586853 58.47960358 260.04783081 58.43086243 261.3583374 C58.14704203 269.00146186 57.86700479 276.64471255 57.59039307 284.2881012 C57.41642191 289.08443029 57.24023681 293.88067662 57.06365967 298.6769104 C56.98018876 300.95826673 56.89769468 303.23965904 56.81622314 305.52108765 C56.70167308 308.72509592 56.58362401 311.92895864 56.46484375 315.1328125 C56.43260208 316.05887802 56.40036041 316.98494354 56.36714172 317.93907166 C56.11274024 324.66486099 55.56056554 331.27321352 55 338 C31.24 338 7.48 338 -17 338 C-17.2165625 327.1409375 -17.2165625 327.1409375 -17.4375 316.0625 C-17.52770474 311.68482073 -17.61911017 307.30723908 -17.71484375 302.9296875 C-17.73550903 301.93646484 -17.75617432 300.94324219 -17.77746582 299.91992188 C-17.93303256 292.8380409 -18.1969778 285.76446536 -18.5 278.6875 C-18.85675043 270.25583296 -19.11999573 261.82821472 -19.28515625 253.390625 C-19.31971169 251.69565636 -19.31971169 251.69565636 -19.35496521 249.96644592 C-19.58376225 238.64456673 -19.79557365 227.32234352 -20 216 C-21.32 216 -22.64 216 -24 216 C-24.1451001 215.03215576 -24.2902002 214.06431152 -24.43969727 213.06713867 C-27.16880955 194.95343222 -30.05740783 176.89505144 -33.6875 158.9375 C-33.83148224 158.22322845 -33.97546448 157.50895691 -34.12380981 156.77304077 C-35.75123005 148.73452179 -37.49046973 140.73431184 -39.46020508 132.77172852 C-39.98034334 130.10093263 -40.10258894 127.71225313 -40 125 C-50.35122411 125.38696165 -58.49025203 127.49025203 -66 135 C-78.79171816 150.37250341 -76.94798068 175.35557802 -76 194 C-75.17936568 202.08796035 -73.63728638 210.04344071 -72 218 C-71.52674038 220.35012224 -71.05692478 222.70071318 -70.59692383 225.0534668 C-70.22045608 226.95825443 -69.82033298 228.85832654 -69.41796875 230.7578125 C-68.97714308 234.17730136 -69.11204832 236.67490433 -70 240 C-73.135439 243.51780961 -75.30999338 245.30096546 -80.0625 245.625 C-84.86995205 244.86191237 -85.87239235 243.62901776 -89 240 C-99.6041991 222.15158399 -104.88388793 200.16234574 -109 180 C-109.24621094 178.80890625 -109.49242187 177.6178125 -109.74609375 176.390625 C-113.9659626 152.06089837 -111.49908775 126.60858786 -97.75 105.6875 C-84.04879083 87.57145676 -64.86399369 76.79860688 -42.53759766 73.48632812 C-38.58999633 72.95000473 -34.63982004 72.4375237 -30.6875 71.9375 C-28.00351212 71.59537017 -25.32005883 71.24956822 -22.63671875 70.90234375 C-20.86880981 70.67792603 -20.86880981 70.67792603 -19.06518555 70.44897461 C-16.64124179 70.09392622 -14.35477514 69.65895987 -12 69 C-16.07746323 64.74030378 -19.27233612 61.76231119 -25.25 60.9375 C-29.11241933 60.37807409 -29.77338755 60.22661245 -32.6875 57.3125 C-34.23911818 53.39651125 -34.34433961 50.9137593 -33 47 C-30.74864927 43.07120143 -28.14168733 39.4241266 -25.5 35.75 C-24.11167514 33.7885135 -22.72612262 31.82506092 -21.34375 29.859375 C-20.72693359 28.99795898 -20.11011719 28.13654297 -19.47460938 27.24902344 C-17.8527534 24.98446899 -17.8527534 24.98446899 -17 22 C-17.309375 21.4225 -17.61875 20.845 -17.9375 20.25 C-19.48856676 16.96538803 -19.36620916 14.60105674 -19 11 C-15.81464838 2.34887458 -9.0750769 -1.61298494 0 0 Z " fill="#108A43" transform="translate(317,174)"/>
<path d="M0 0 C0.81059134 0.00514356 1.62118268 0.01028713 2.45633739 0.01558656 C3.74416131 0.01196493 3.74416131 0.01196493 5.05800188 0.00827014 C7.95163419 0.00260814 10.84504817 0.01131504 13.73867077 0.01990479 C15.80628307 0.01883254 17.87389508 0.0168947 19.94150585 0.01415223 C25.56940375 0.00929199 31.19722274 0.01697401 36.82511109 0.02710527 C42.70233825 0.03586548 48.5795628 0.03412873 54.45679516 0.03374451 C64.32713438 0.03468201 74.19744292 0.04337785 84.06777233 0.05701417 C95.49671112 0.07274493 106.9256163 0.07801217 118.35456514 0.07727861 C129.32802278 0.07666929 140.30146941 0.08176569 151.27492374 0.09007043 C155.95475072 0.09361067 160.6345738 0.09543473 165.31440204 0.09596413 C170.81938776 0.09696512 176.324345 0.10304165 181.82932132 0.11313027 C183.85588574 0.11606304 185.88245343 0.11727908 187.90901989 0.11670274 C190.66302302 0.1162157 193.41694511 0.12183143 196.170937 0.12911195 C196.98375906 0.12756334 197.79658112 0.12601474 198.63403416 0.12441921 C204.13596682 0.14864616 204.13596682 0.14864616 205.25014538 1.26282471 C205.35591675 3.92994582 205.39692521 6.57130707 205.39540905 9.23914307 C205.39876766 10.07488358 205.40212627 10.91062409 205.40558666 11.77169007 C205.41512604 14.54869777 205.41704126 17.32564537 205.41811413 20.10266846 C205.42132461 22.0245895 205.42468852 23.94651028 205.42820019 25.86843079 C205.43419892 29.90281461 205.43603932 33.93717698 205.43544811 37.97156495 C205.43534644 43.1515502 205.44900033 48.33139852 205.46622032 53.51135129 C205.47731658 57.48235939 205.47936805 61.45333414 205.47883838 65.42435616 C205.48002203 67.33460241 205.48446517 69.24484942 205.49217075 71.1550805 C205.50192301 73.82252296 205.4991116 76.48966495 205.4930653 79.15711182 C205.4986848 79.95251374 205.50430431 80.74791566 205.51009411 81.56742066 C205.47846083 87.03450926 205.47846083 87.03450926 203.25014538 89.26282471 C200.49670125 89.46276092 197.84348686 89.53643824 195.08864635 89.52352113 C194.23488619 89.52734667 193.38112603 89.53117222 192.50149435 89.53511369 C189.62402998 89.5454805 186.74676378 89.54144462 183.869286 89.53748292 C181.81314702 89.54182733 179.75700967 89.54700956 177.70087475 89.55297059 C172.10391181 89.56640018 166.50701623 89.56693493 160.91004032 89.56440729 C156.24516178 89.56334038 151.58029703 89.56821368 146.91542143 89.57301271 C135.91516926 89.58412134 124.91495123 89.58453752 113.91469616 89.57849854 C102.54822096 89.57245471 91.18186942 89.5847771 79.81541532 89.60606861 C70.07189193 89.62365221 60.32840801 89.62969116 50.58486933 89.62643087 C44.75868633 89.62461287 38.93259155 89.62730549 33.10642284 89.64114541 C27.63010819 89.65366672 22.15398714 89.65183397 16.67767566 89.63873452 C14.66281677 89.6363568 12.64794449 89.6391458 10.63310093 89.64735764 C7.8923866 89.65772619 5.15233397 89.64980492 2.4116444 89.63704652 C1.20261699 89.64810794 1.20261699 89.64810794 -0.03083521 89.65939283 C-2.24531513 89.63755482 -2.24531513 89.63755482 -5.74985462 89.26282471 C-8.25015799 85.51236967 -8.03142479 82.58454892 -8.00864369 78.24304932 C-8.01214833 77.4265239 -8.01565296 76.60999848 -8.0192638 75.76872987 C-8.02807265 73.06745648 -8.02223552 70.36644455 -8.01547962 67.66516846 C-8.01682639 65.79094615 -8.01876701 63.91672418 -8.02127796 62.04250306 C-8.02422797 58.1142008 -8.01993505 54.18598946 -8.01059681 50.25769776 C-7.9991945 45.21451533 -8.00576746 40.17154559 -8.01774174 35.12837094 C-8.02495696 31.25858162 -8.02267411 27.38884302 -8.01748616 23.51905221 C-8.01614913 21.65905007 -8.01779922 19.79904338 -8.02244526 17.93904656 C-8.02750583 15.34364148 -8.01980737 12.74858461 -8.00864369 10.15320557 C-8.01269215 9.37964722 -8.01674061 8.60608887 -8.02091175 7.80908936 C-7.96730465 1.10585634 -6.65769239 0.04166317 0 0 Z " fill="#FEFDFD" transform="translate(684.7498546242714,210.7371752858162)"/>
<path d="M0 0 C0.81739513 0.00223072 1.63479026 0.00446144 2.47695494 0.00675976 C3.33873334 0.00519977 4.20051175 0.00363978 5.08840466 0.00203252 C7.99890358 -0.00198127 10.90935106 0.00121362 13.81985044 0.00434887 C15.89716704 0.002995 17.9744834 0.00121515 20.0517993 -0.00096118 C25.71072361 -0.00553718 31.36962979 -0.00374528 37.02855444 -0.0005821 C42.93648533 0.00194065 48.84441461 -0.0003958 54.75234556 -0.00196826 C64.67572895 -0.00379021 74.5991049 -0.001383 84.52248716 0.00337231 C96.01331935 0.00881498 107.5041338 0.00705234 118.99496555 0.00154591 C128.84120588 -0.00298451 138.68744084 -0.00363612 148.53368187 -0.00101542 C154.42297389 0.00054774 160.31225756 0.00074003 166.20154905 -0.00255191 C171.73688609 -0.0054296 177.27220015 -0.00345684 182.80753469 0.00234234 C184.84538755 0.0036705 186.88324232 0.0032749 188.92109442 0.00107968 C191.6904736 -0.00162967 194.45977787 0.00174664 197.2291522 0.00675976 C198.04654733 0.00452904 198.86394246 0.00229832 199.70610714 0 C205.23890374 0.01959357 205.23890374 0.01959357 206.35305357 1.13374341 C206.4535041 3.80624408 206.48922006 6.45292922 206.4824481 9.12593091 C206.48507658 10.38195111 206.48507658 10.38195111 206.48775816 11.66334546 C206.49217758 14.44516554 206.48923837 17.22692261 206.48586607 20.00874341 C206.48653908 21.93305994 206.48750909 23.85737639 206.48876524 25.78169262 C206.49024234 29.82027505 206.48808728 33.85883541 206.48342466 37.89741528 C206.47772737 43.08642851 206.48100631 48.27539003 206.48699713 53.46440136 C206.49060243 57.43965561 206.4894643 61.41489749 206.48686934 65.3901521 C206.48619998 67.30401121 206.48702879 69.21787142 206.48934889 71.13172925 C206.4918749 73.80170191 206.48803555 76.47158961 206.4824481 79.14155591 C206.48447233 79.9405531 206.48649656 80.73955029 206.48858213 81.56275952 C206.46731607 87.01948091 206.46731607 87.01948091 205.35305357 88.13374341 C202.65171571 88.23603188 199.97579525 88.27260397 197.2738452 88.26745617 C196.41685591 88.26972173 195.55986662 88.27198729 194.67690796 88.2743215 C191.78256614 88.2806916 188.88827079 88.27983022 185.99392271 88.27900708 C183.92808041 88.28199669 181.86223868 88.28539875 179.79639769 88.28918469 C174.16839995 88.29804888 168.5404174 88.30036381 162.91241336 88.30100048 C158.22273564 88.30194751 153.5330615 88.30562341 148.84338516 88.30917257 C137.78418751 88.31732627 126.72499802 88.31975597 115.66579771 88.31904614 C104.23745587 88.31844505 92.8091612 88.32900104 81.3808313 88.3447898 C71.58637886 88.35784174 61.79194188 88.36323103 51.99748081 88.36259073 C46.14000111 88.36233506 40.2825633 88.36522422 34.42509222 88.37576878 C28.91846122 88.38541044 23.41191248 88.38555614 17.90527868 88.37825215 C15.87913217 88.3772014 13.85298064 88.37959799 11.82684278 88.38561261 C9.07087855 88.39326661 6.31520307 88.38873188 3.55924559 88.38098156 C2.74865425 88.38612513 1.93806291 88.39126869 1.10290819 88.39656812 C-4.41867523 88.3620146 -4.41867523 88.3620146 -6.64694643 86.13374341 C-6.84021963 83.42840769 -6.90921187 80.82586001 -6.88986635 78.11982739 C-6.8917647 77.29208813 -6.89366304 76.46434887 -6.89561892 75.61152661 C-6.89933248 72.86753467 -6.88861511 70.12380568 -6.87741518 67.37983716 C-6.8762237 65.47937055 -6.87577015 63.57890336 -6.87602663 61.6784364 C-6.87446081 57.69287957 -6.86616302 53.70741244 -6.85275698 49.72187817 C-6.83575547 44.60126818 -6.8319429 39.48075676 -6.83270216 34.36012185 C-6.83243086 30.4354763 -6.82695629 26.51085251 -6.81970072 22.58621418 C-6.81650841 20.69747659 -6.81454534 18.80873653 -6.81380701 16.91999638 C-6.81165003 14.28604274 -6.80292014 11.65219579 -6.7922101 9.01826489 C-6.79266329 8.23018948 -6.79311647 7.44211407 -6.79358339 6.63015759 C-6.75491719 0.15989184 -6.45371122 0.02285485 0 0 Z " fill="#FEFEFE" transform="translate(683.6469464302063,112.8662565946579)"/>
<path d="M0 0 C1.22025627 0.00334608 1.22025627 0.00334608 2.46516418 0.00675976 C3.32285904 0.00519977 4.18055389 0.00363978 5.0642395 0.00203252 C7.96091897 -0.00198124 10.85754675 0.00121361 13.75422668 0.00434887 C15.82169119 0.002995 17.88915546 0.00121515 19.95661926 -0.00096118 C25.58868496 -0.00553716 31.22073243 -0.00374528 36.85279846 -0.0005821 C42.73270214 0.00194066 48.6126042 -0.0003958 54.49250793 -0.00196826 C64.36881288 -0.00379021 74.24511037 -0.001383 84.12141418 0.00337231 C95.55771483 0.00881498 106.99399764 0.00705234 118.43029785 0.00154591 C128.22982944 -0.00298452 138.02935564 -0.00363612 147.82888794 -0.00101542 C153.6902343 0.00054774 159.55157226 0.00074004 165.41291809 -0.00255191 C170.92199035 -0.00542961 176.43103951 -0.00345682 181.94010925 0.00234234 C183.96828676 0.00367049 185.99646619 0.00327491 188.02464294 0.00107968 C190.78088507 -0.00162969 193.53705193 0.00174667 196.29328918 0.00675976 C197.51354546 0.00341368 197.51354546 0.00341368 198.75845337 0 C204.26507685 0.01959357 204.26507685 0.01959357 205.37922668 1.13374341 C205.4850166 3.83136802 205.52600608 6.50352461 205.52449036 9.20185864 C205.52784897 10.04735272 205.53120758 10.8928468 205.53466797 11.76396191 C205.54420751 14.57343506 205.54612257 17.3828488 205.54719543 20.19233716 C205.55040591 22.13667844 205.55376981 24.08101947 205.55728149 26.02536023 C205.56328027 30.10682243 205.56512063 34.18826343 205.56452942 38.26972973 C205.56442775 43.51024849 205.57808171 48.7506319 205.59530163 53.99111855 C205.6063977 58.00844972 205.60844937 62.02574792 205.60791969 66.04309285 C205.60910336 67.97566773 205.61354665 69.90824338 205.62125206 71.84080327 C205.63100393 74.53937761 205.62819306 77.23765494 205.62214661 79.93623364 C205.62776611 80.74098629 205.63338562 81.54573895 205.63917542 82.37487805 C205.60754211 87.90542798 205.60754211 87.90542798 203.37922668 90.13374341 C200.54120517 90.38640371 197.84306889 90.50402772 195.00422668 90.50874341 C194.23594543 90.53323559 193.46766418 90.55772778 192.67610168 90.58296216 C188.86734486 90.60273079 186.97606735 90.5681412 183.82453918 88.27436841 C182.37922668 86.13374341 182.37922668 86.13374341 182.62922668 83.50874341 C182.87672668 82.39499341 183.12422668 81.28124341 183.37922668 80.13374341 C184.16024034 72.93345913 184.16024034 72.93345913 181.12922668 66.63374341 C176.6515411 62.56312014 173.50331643 61.71614731 167.55891418 61.89155591 C164.4034766 62.24216008 162.76035597 63.02474318 160.37922668 65.13374341 C156.9272029 69.9852363 155.71610463 73.05512454 156.37922668 79.13374341 C156.99797668 80.68061841 156.99797668 80.68061841 157.62922668 82.25874341 C158.37922668 85.13374341 158.37922668 85.13374341 156.8325901 87.77501023 C153.68143215 90.80462286 152.19736565 90.75592802 147.87541199 90.74847424 C146.8984749 90.75699912 146.8984749 90.75699912 145.90180171 90.76569623 C143.7209364 90.77860858 141.54192404 90.75580567 139.36116028 90.73310864 C137.7973288 90.73497254 136.23349863 90.73900885 134.66967773 90.74505627 C130.42379354 90.75503964 126.1785758 90.7338484 121.93278837 90.70657623 C117.49344877 90.68276865 113.0541229 90.68569137 108.61473083 90.68527234 C101.16143997 90.68064311 93.70840443 90.65699089 86.25520325 90.62080395 C77.6300374 90.57903918 69.00510141 90.5614874 60.37984025 90.55818421 C51.20612713 90.55458887 42.03249707 90.53572191 32.85881853 90.51106393 C30.21073784 90.50482673 27.56266347 90.50119587 24.91457748 90.49802983 C20.75967289 90.49214236 16.60493363 90.4758661 12.45009804 90.45142567 C10.92224339 90.4439663 9.39436791 90.4399125 7.86649513 90.43944561 C5.78718259 90.43819388 3.70831057 90.42469655 1.6290741 90.40789807 C0.46359228 90.40324756 -0.70188953 90.39859705 -1.90268898 90.39380562 C-4.62077332 90.13374341 -4.62077332 90.13374341 -6.62077332 88.13374341 C-6.81412216 85.36797072 -6.88301136 82.70272447 -6.86369324 79.93623364 C-6.86559158 79.08898724 -6.86748993 78.24174084 -6.8694458 77.36882031 C-6.87315965 74.55989936 -6.86244157 71.75123524 -6.85124207 68.94233716 C-6.8500506 66.99703005 -6.84959703 65.05172237 -6.84985352 63.10641491 C-6.84828765 59.02670205 -6.83998948 54.94707681 -6.82658386 50.86738598 C-6.80958262 45.62570824 -6.80576978 40.38412679 -6.80652905 35.1424247 C-6.80625775 31.1251331 -6.80078324 27.10786275 -6.7935276 23.0905782 C-6.79033521 21.15718318 -6.7883722 19.22378574 -6.7876339 17.29038823 C-6.78547699 14.59416954 -6.77674727 11.8980551 -6.76603699 9.20185864 C-6.76649017 8.39508175 -6.76694336 7.58830487 -6.76741028 6.7570802 C-6.72933899 0.2361475 -6.51966984 0.02319818 0 0 Z " fill="#FDFEFE" transform="translate(142.6207733154297,112.8662565946579)"/>
<path d="M0 0 C5.0192764 1.54513098 8.41704336 4.5635772 12.3125 7.9375 C12.95767578 8.47568359 13.60285156 9.01386719 14.26757812 9.56835938 C14.87666016 10.09107422 15.48574219 10.61378906 16.11328125 11.15234375 C16.66798096 11.62663818 17.22268066 12.10093262 17.79418945 12.58959961 C19 14 19 14 19 17 C17.85766602 18.74243164 17.85766602 18.74243164 16.25390625 20.66015625 C15.66859131 21.36624023 15.08327637 22.07232422 14.48022461 22.79980469 C13.53095093 23.91983887 13.53095093 23.91983887 12.5625 25.0625 C11.59679077 26.21540527 11.59679077 26.21540527 10.61157227 27.39160156 C-1.16134417 41.38863547 -13.44104176 54.84721515 -28 66 C-28.54849609 66.42490723 -29.09699219 66.84981445 -29.66210938 67.28759766 C-47.44284527 80.99810405 -67.04220223 91.88506373 -88.1875 99.5 C-88.8578125 99.74331055 -89.528125 99.98662109 -90.21875 100.23730469 C-94.83265662 101.82073456 -99.17509737 102.52770697 -104 103 C-103.91959473 103.68586182 -103.83918945 104.37172363 -103.75634766 105.07836914 C-102.75699256 113.71117195 -101.85148717 122.35158268 -101 131 C-100.88833496 132.1226123 -100.77666992 133.24522461 -100.66162109 134.40185547 C-98.80317156 154.13343207 -98.81595841 173.88790602 -98.8125 193.6875 C-98.81171637 194.71449509 -98.81171637 194.71449509 -98.8109169 195.76223755 C-98.80770806 200.36628555 -98.81651106 204.97018781 -98.83203125 209.57421875 C-98.83384399 211.36438667 -98.83384399 211.36438667 -98.83569336 213.1907196 C-98.84197754 214.2926918 -98.84826172 215.394664 -98.85473633 216.5300293 C-98.85854813 217.49353806 -98.86235992 218.45704681 -98.86628723 219.44975281 C-98.98851055 221.78086663 -99.33941202 223.7688088 -100 226 C-110.41572336 225.52825091 -120.79797388 224.88108768 -131.1875 224 C-140.91529997 223.17615951 -150.62758598 222.6456899 -160.38549805 222.34179688 C-161.3269165 222.31021484 -162.26833496 222.27863281 -163.23828125 222.24609375 C-164.06368408 222.22216553 -164.88908691 222.1982373 -165.73950195 222.17358398 C-167.93269794 222.00516814 -169.88826132 221.60114747 -172 221 C-172.01401855 220.10027466 -172.01401855 220.10027466 -172.02832031 219.18237305 C-172.39225612 199.6672071 -173.62164662 180.22080946 -174.9375 160.75 C-175.02286011 159.46886322 -175.10822021 158.18772644 -175.19616699 156.86776733 C-176.07143216 143.79899823 -177.00489201 130.76298864 -178.5559082 117.75537109 C-179.17846705 112.49083003 -179.66643977 107.21846008 -180.125 101.9375 C-180.21136719 100.99712891 -180.29773438 100.05675781 -180.38671875 99.08789062 C-180.88765573 93.36687228 -181.08229245 87.7428375 -181 82 C-175.90400015 85.68052685 -171.3399869 89.44301375 -167 94 C-160.28367596 91.89261077 -154.16911421 88.80686023 -147.875 85.6875 C-146.69550781 85.11837891 -145.51601563 84.54925781 -144.30078125 83.96289062 C-143.16769531 83.40150391 -142.03460938 82.84011719 -140.8671875 82.26171875 C-139.83706543 81.75600342 -138.80694336 81.25028809 -137.74560547 80.72924805 C-133.61383646 78.12696102 -130.87965704 74.98854241 -129.75 70.1875 C-129.5025 69.135625 -129.255 68.08375 -129 67 C-127.93809448 66.86537354 -127.93809448 66.86537354 -126.85473633 66.72802734 C-104.98605712 63.89133412 -84.92361082 59.57029341 -65 50 C-63.92234375 49.4946875 -62.8446875 48.989375 -61.734375 48.46875 C-44.62528771 40.22129254 -28.00252122 28.36545161 -14.75 14.67578125 C-13 13 -13 13 -11 13 C-10.67 12.01 -10.34 11.02 -10 10 C-9.34 10 -8.68 10 -8 10 C-7.79375 9.46375 -7.5875 8.9275 -7.375 8.375 C-5.42003056 4.9982346 -2.81776305 2.69525161 0 0 Z " fill="#108943" transform="translate(494,168)"/>
<path d="M0 0 C0.96297501 -0.00394272 1.92595001 -0.00788544 2.91810608 -0.01194763 C6.10136916 -0.01866121 9.28319902 0.01050916 12.46630859 0.04077148 C14.67540203 0.04502073 16.88449994 0.04735006 19.09359741 0.0478363 C23.72227215 0.05400381 28.35046337 0.07671733 32.97900391 0.11230469 C38.92234305 0.15763015 44.86524461 0.17233314 50.80874062 0.1760416 C55.36911361 0.18046244 59.92939409 0.19575168 64.48972702 0.21491814 C66.68186047 0.22381798 68.87400385 0.23053938 71.06615067 0.23507881 C74.12369784 0.24408627 77.18084236 0.26644511 80.23828125 0.29296875 C81.15052963 0.29363342 82.06277802 0.2942981 83.00267029 0.29498291 C89.26057542 0.37019456 89.26057542 0.37019456 91.48974609 2.59936523 C91.68830135 5.32941647 91.7624639 7.95803256 91.74853516 10.68920898 C91.75379211 11.94303879 91.75379211 11.94303879 91.75915527 13.22219849 C91.76798023 15.99383778 91.76212077 18.76522321 91.75537109 21.53686523 C91.75671752 23.45735727 91.75865787 25.37784898 91.76116943 27.29833984 C91.76412173 31.32677449 91.75981966 35.35512055 91.75048828 39.38354492 C91.7390937 44.55566966 91.7456526 49.72758686 91.75763321 54.89970398 C91.76484896 58.86643039 91.7625652 62.83310733 91.75737762 66.79983521 C91.75604034 68.70728581 91.7576916 70.61474086 91.76233673 72.52218628 C91.76739729 75.18475295 91.75969845 77.84698019 91.74853516 80.50952148 C91.75258362 81.30335236 91.75663208 82.09718323 91.76080322 82.91506958 C91.71827438 88.37083695 91.71827438 88.37083695 89.48974609 90.59936523 C86.74395542 90.79273352 84.09940632 90.85978877 81.35275269 90.83987427 C80.50166494 90.84158312 79.6505772 90.84329197 78.77369893 90.8450526 C75.90536362 90.84836201 73.03725927 90.83732004 70.16894531 90.82641602 C68.11941534 90.82585221 66.06988496 90.82616785 64.02035522 90.82730103 C58.44210406 90.82787675 52.86393826 90.81608691 47.285707 90.80215311 C41.46140057 90.78968234 35.63709237 90.78847814 29.81277466 90.78610229 C18.7772069 90.77987675 7.74167859 90.76345145 -3.29387176 90.74340332 C-15.85473774 90.72107767 -28.41560557 90.71005929 -40.97648644 90.70001245 C-66.8210975 90.67908613 -92.6656735 90.64388934 -118.51025391 90.59936523 C-115.67029769 87.75940902 -112.15625436 86.64073286 -108.51025391 85.09936523 C-83.75252801 74.32581597 -63.07665077 59.11513025 -43.51025391 40.59936523 C-42.11613281 39.28645508 -42.11613281 39.28645508 -40.69384766 37.94702148 C-34.04280995 31.50412436 -28.37314473 24.60249746 -22.77392578 17.24780273 C-20.90925418 14.81537177 -18.99252702 12.42591623 -17.07275391 10.03686523 C-16.1775 8.92118164 -16.1775 8.92118164 -15.26416016 7.78295898 C-14.68537109 7.06237305 -14.10658203 6.34178711 -13.51025391 5.59936523 C-12.76021591 4.31285316 -12.76021591 4.31285316 -11.99502563 3.00035095 C-8.27853078 -0.59082443 -4.98915414 -0.08149148 0 0 Z " fill="#FEFEFD" transform="translate(528.51025390625,175.400634765625)"/>
<path d="M0 0 C1.20319098 0.00669217 1.20319098 0.00669217 2.43068886 0.01351953 C3.28036547 0.01039954 4.13004208 0.00727956 5.00546646 0.00406504 C7.86911907 -0.00394922 10.73256179 0.00242196 13.5962162 0.00869775 C15.64250247 0.00598941 17.68878775 0.00242936 19.73507118 -0.00192237 C25.30518149 -0.0110673 30.87521801 -0.00749347 36.44532967 -0.0011642 C42.26336815 0.00388493 48.08140014 -0.00079261 53.89943886 -0.00393653 C63.6714231 -0.00757936 73.44337716 -0.00276879 83.21535683 0.00674462 C94.52727681 0.01762977 105.8391247 0.01410441 117.15104294 0.00309181 C126.84785582 -0.00597206 136.54464696 -0.00727076 146.24146271 -0.00203085 C152.03967788 0.00109381 157.83785914 0.00148463 163.63607216 -0.00510383 C169.08609087 -0.0108636 174.53601627 -0.00690558 179.98602486 0.00468469 C181.99120618 0.00733862 183.9963953 0.00655377 186.00157356 0.00215936 C188.72902942 -0.00326871 191.45618224 0.00350448 194.18361855 0.01351953 C194.98574587 0.00905808 195.78787319 0.00459664 196.6143074 0 C202.07885362 0.03918673 202.07885362 0.03918673 204.3071537 2.26748681 C204.56112099 4.39273095 204.56112099 4.39273095 204.56594276 7.05264306 C204.57224709 8.04707421 204.57855141 9.04150537 204.58504677 10.0660708 C204.57897408 11.68170922 204.57897408 11.68170922 204.5727787 13.32998681 C204.57469215 14.43221581 204.57660561 15.53444482 204.57857704 16.6700747 C204.57993982 19.00365449 204.57623693 21.33724184 204.56789589 23.67080712 C204.55719791 27.25268528 204.56778828 30.83406184 204.5805912 34.41592431 C204.57926962 36.67894626 204.57670727 38.94196789 204.5727787 41.20498681 C204.57682716 42.2820791 204.58087563 43.35917138 204.58504677 44.46890283 C204.57559029 45.96054955 204.57559029 45.96054955 204.56594276 47.48233056 C204.56435158 48.36010156 204.56276039 49.23787255 204.56112099 50.14224267 C204.3071537 52.26748681 204.3071537 52.26748681 202.3071537 54.26748681 C199.38466988 54.45576674 196.55764549 54.51917421 193.63479042 54.49453759 C192.73716988 54.49482965 191.83954933 54.4951217 190.91472816 54.4954226 C187.93866855 54.49402584 184.96285725 54.47844837 181.9868412 54.46279931 C179.92703831 54.45907041 177.86723365 54.45622286 175.80742836 54.45422387 C170.3789425 54.44657772 164.9505632 54.4269208 159.52211952 54.40481591 C153.98563517 54.38437861 148.44913364 54.37522669 142.91262245 54.36514306 C132.04408598 54.34367583 121.17562869 54.30952807 110.3071537 54.26748681 C110.71707558 53.51983056 111.12699745 52.77217431 111.5493412 52.00186181 C112.08816933 51.01701806 112.62699745 50.03217431 113.1821537 49.01748681 C113.71582558 48.04295556 114.24949745 47.06842431 114.7993412 46.06436181 C117.7923478 40.51256719 119.29490389 36.66434517 118.3071537 30.26748681 C116.43094757 27.76587863 115.06824067 26.64803029 112.3071537 25.26748681 C108.93358036 24.7667836 108.93358036 24.7667836 105.3071537 25.26748681 C101.53369761 28.58667451 98.56945954 32.38592316 95.5571537 36.39248681 C94.33001266 38.02190257 93.09845852 39.64878871 91.82004738 41.23829675 C90.20266926 43.32067001 90.20266926 43.32067001 88.75361061 45.99894738 C86.2711479 49.85444733 83.89931115 53.44976144 79.33470726 54.88971734 C73.41975854 55.86497237 67.4368271 55.57955137 61.46730995 55.41201806 C59.53443377 55.39655743 57.60151581 55.38569927 55.66858864 55.37922692 C50.60279127 55.34870493 45.54043511 55.25045165 40.47585487 55.13937402 C36.32910121 55.06009257 32.18265197 55.02969636 28.03528118 55.00168347 C23.09575105 54.96735823 18.15656153 54.91157661 13.21730995 54.84951806 C12.27293634 54.83818149 11.32856274 54.82684491 10.35557175 54.8151648 C7.69591657 54.77802443 5.03699992 54.72634221 2.37771034 54.66909814 C1.58552605 54.6590072 0.79334175 54.64891625 -0.02284813 54.63851953 C-5.46233557 54.49799754 -5.46233557 54.49799754 -7.6928463 52.26748681 C-7.94681358 50.14224267 -7.94681358 50.14224267 -7.95163536 47.48233056 C-7.95793968 46.48789941 -7.964244 45.49346826 -7.97073936 44.46890283 C-7.9666909 43.39181054 -7.96264244 42.31471826 -7.9584713 41.20498681 C-7.96038475 40.10275781 -7.9622982 39.0005288 -7.96426964 37.86489892 C-7.96563242 35.53131913 -7.96192952 33.19773178 -7.95358849 30.8641665 C-7.94289051 27.28228834 -7.95348088 23.70091178 -7.9662838 20.11904931 C-7.96496222 17.85602736 -7.96239986 15.59300573 -7.9584713 13.32998681 C-7.96251976 12.25289453 -7.96656822 11.17580224 -7.97073936 10.0660708 C-7.96443504 9.07163964 -7.95813072 8.07720849 -7.95163536 7.05264306 C-7.95004417 6.17487206 -7.94845299 5.29710107 -7.94681358 4.39273095 C-7.36974732 -0.43626384 -4.0830939 0.02928022 0 0 Z " fill="#FEFEFE" transform="translate(414.6928462982178,112.7325131893158)"/>
<path d="M0 0 C1.18682625 0.00539291 1.18682625 0.00539291 2.39762878 0.01089478 C3.22682831 0.01074875 4.05602783 0.01060272 4.91035461 0.01045227 C7.664521 0.01115166 10.41862063 0.01894523 13.17277527 0.02676392 C15.07706668 0.028628 16.98135857 0.03005195 18.88565063 0.03105164 C23.90804865 0.03487754 28.93041794 0.04470843 33.95280457 0.05575562 C39.07365022 0.06596819 44.1945005 0.07054892 49.31535339 0.07559204 C59.37070459 0.08633064 69.42603442 0.10340792 79.48136902 0.12442017 C78.93649841 1.06688599 78.39162781 2.00935181 77.83024597 2.9803772 C77.10576952 4.23926502 76.38141053 5.49822045 75.65715027 6.75723267 C75.29915344 7.37574097 74.94115662 7.99424927 74.5723114 8.63150024 C61.30026962 31.74171839 60.92845361 57.57559181 66.48136902 83.12442017 C66.65297546 83.94619751 66.82458191 84.76797485 67.00138855 85.61465454 C69.51969958 97.54231179 72.9259659 108.94860355 77.12590027 120.39004517 C78.48136902 124.12442017 78.48136902 124.12442017 78.48136902 125.12442017 C67.5464043 125.14754314 56.61144536 125.16533502 45.67646122 125.17623234 C40.59945884 125.18146127 35.52247313 125.18855909 30.44548035 125.19985962 C25.5501635 125.21068815 20.65486273 125.21669693 15.75953484 125.21929741 C13.88753951 125.22115172 12.01554511 125.22477245 10.14355659 125.23015022 C7.53096202 125.23736021 4.91843475 125.23841113 2.30583191 125.23794556 C1.52396515 125.24154083 0.74209839 125.24513611 -0.0634613 125.24884033 C-5.40457882 125.23847233 -5.40457882 125.23847233 -6.51863098 124.12442017 C-6.61677293 122.53252044 -6.64495005 120.9362611 -6.64561462 119.34133911 C-6.64843445 118.30646866 -6.65125427 117.27159821 -6.65415955 116.20536804 C-6.65213531 115.06039352 -6.65011108 113.91541901 -6.64802551 112.73574829 C-6.64977783 111.53751938 -6.65153015 110.33929047 -6.65333557 109.10475159 C-6.65699373 105.80937225 -6.65612068 102.51405533 -6.65295649 99.21867943 C-6.65043247 95.77714323 -6.65277054 92.33560978 -6.65434265 88.89407349 C-6.65616423 83.1135917 -6.65375835 77.33312267 -6.64900208 71.55264282 C-6.64355947 64.86058483 -6.64532214 58.16855729 -6.65082848 51.47650003 C-6.65535995 45.74062797 -6.65600999 40.00476509 -6.65338981 34.26889181 C-6.65182723 30.83881728 -6.65163277 27.40875709 -6.6549263 23.97868347 C-6.65833941 20.15680752 -6.65361471 16.33496596 -6.64802551 12.51309204 C-6.65004974 11.36811752 -6.65207397 10.22314301 -6.65415955 9.04347229 C-6.65133972 8.00860184 -6.6485199 6.97373138 -6.64561462 5.90750122 C-6.6452376 5.00267754 -6.64486057 4.09785385 -6.64447212 3.16561127 C-6.38419195 -1.05623205 -3.57051699 0.00684959 0 0 Z " fill="#FEFEFE" transform="translate(143.5186309814453,274.8755798339844)"/>
<path d="M0 0 C7.09021798 -0.05175127 14.18038543 -0.08616078 21.27075195 -0.10986328 C23.67051003 -0.11976973 26.07025657 -0.13329858 28.4699707 -0.15087891 C73.06240955 -0.46879522 73.06240955 -0.46879522 80 3 C79.87765816 6.31640824 79.75524788 9.63281396 79.6328125 12.94921875 C79.57435905 14.53258278 79.57435905 14.53258278 79.51472473 16.14793396 C79.2950877 22.09392816 79.07487504 28.03990042 78.85375977 33.98583984 C78.76057864 36.49186195 78.66739831 38.99788409 78.57421875 41.50390625 C78.52691116 42.77586853 78.47960358 44.04783081 78.43086243 45.3583374 C78.14704203 53.00146186 77.86700479 60.64471255 77.59039307 68.2881012 C77.41642191 73.08443029 77.24023681 77.88067662 77.06365967 82.6769104 C76.98018876 84.95826673 76.89769468 87.23965904 76.81622314 89.52108765 C76.70167308 92.72509592 76.58362401 95.92895864 76.46484375 99.1328125 C76.41648125 100.52191078 76.41648125 100.52191078 76.36714172 101.93907166 C76.11274024 108.66486099 75.56056554 115.27321352 75 122 C51.24 122 27.48 122 3 122 C2.855625 114.760625 2.71125 107.52125 2.5625 100.0625 C2.47229526 95.68482073 2.38088983 91.30723908 2.28515625 86.9296875 C2.26449097 85.93646484 2.24382568 84.94324219 2.22253418 83.91992188 C2.06696744 76.8380409 1.8030222 69.76446536 1.5 62.6875 C1.14324957 54.25583296 0.88000427 45.82821472 0.71484375 37.390625 C0.69180679 36.2606459 0.66876984 35.13066681 0.64503479 33.96644592 C0.41623775 22.64456673 0.20442635 11.32234352 0 0 Z " fill="#2C293C" transform="translate(297,390)"/>
<path d="M0 0 C0.81059134 0.00514356 1.62118268 0.01028713 2.45633739 0.01558656 C3.74416131 0.01196493 3.74416131 0.01196493 5.05800188 0.00827014 C7.95163419 0.00260814 10.84504817 0.01131504 13.73867077 0.01990479 C15.80628307 0.01883254 17.87389508 0.0168947 19.94150585 0.01415223 C25.56940375 0.00929199 31.19722274 0.01697401 36.82511109 0.02710527 C42.70233825 0.03586548 48.5795628 0.03412873 54.45679516 0.03374451 C64.32713438 0.03468201 74.19744292 0.04337785 84.06777233 0.05701417 C95.49671112 0.07274493 106.9256163 0.07801217 118.35456514 0.07727861 C129.32802278 0.07666929 140.30146941 0.08176569 151.27492374 0.09007043 C155.95475072 0.09361067 160.6345738 0.09543473 165.31440204 0.09596413 C170.81938776 0.09696512 176.324345 0.10304165 181.82932132 0.11313027 C183.85588574 0.11606304 185.88245343 0.11727908 187.90901989 0.11670274 C190.66302302 0.1162157 193.41694511 0.12183143 196.170937 0.12911195 C196.98375906 0.12756334 197.79658112 0.12601474 198.63403416 0.12441921 C204.13596682 0.14864616 204.13596682 0.14864616 205.25014538 1.26282471 C205.35110102 3.91738665 205.38985536 6.54537647 205.38295788 9.20032471 C205.3839146 9.99559571 205.38487133 10.79086671 205.38585705 11.61023682 C205.38653881 13.29488932 205.3846848 14.97954443 205.38051647 16.6641919 C205.37516813 19.25181668 205.38046157 21.83926787 205.38686413 24.42688721 C205.38620334 26.0597001 205.38492218 27.69251288 205.38295788 29.32532471 C205.38498211 30.10448243 205.38700634 30.88364014 205.38909191 31.6864087 C205.36509642 37.14787367 205.36509642 37.14787367 204.25014538 38.26282471 C201.53389981 38.36290185 198.84301047 38.39722258 196.12624401 38.38980836 C195.2644656 38.39136835 194.40268719 38.39292834 193.51479429 38.3945356 C190.60429537 38.39854939 187.69384788 38.3953545 184.7833485 38.39221925 C182.7060319 38.39357312 180.62871555 38.39535297 178.55139965 38.3975293 C172.89247533 38.4021053 167.23356916 38.4003134 161.57464451 38.39715022 C155.66671362 38.39462747 149.75878433 38.39696392 143.85085338 38.39853638 C133.92747 38.40035833 124.00409404 38.39795112 114.08071178 38.39319581 C102.5898796 38.38775314 91.09906515 38.38951578 79.60823339 38.39502221 C69.76199307 38.39955263 59.9157581 38.40020424 50.06951708 38.39758354 C44.18022505 38.39602038 38.29094139 38.39582809 32.40164989 38.39912003 C26.86631285 38.40199772 21.3309988 38.40002496 15.79566425 38.39422578 C13.7578114 38.39289762 11.71995663 38.39329322 9.68210453 38.39548844 C6.91272535 38.39819779 4.14342107 38.39482148 1.37404674 38.38980836 C0.55665161 38.39203908 -0.26074352 38.3942698 -1.10290819 38.39656812 C-6.63570479 38.37697455 -6.63570479 38.37697455 -7.74985462 37.26282471 C-7.86317555 34.69262987 -7.91402948 32.15030994 -7.91782337 29.57923096 C-7.92281597 28.42317605 -7.92281597 28.42317605 -7.92790943 27.24376649 C-7.93298173 25.6103955 -7.93531767 23.97701412 -7.93515736 22.34363526 C-7.93734242 19.83931172 -7.95549058 17.33542951 -7.974464 14.83118409 C-7.9773981 13.24720123 -7.97938278 11.66321626 -7.98032337 10.07923096 C-7.98750889 9.32710831 -7.99469441 8.57498566 -8.00209767 7.80007142 C-7.9725107 1.09390148 -6.65094313 0.04162094 0 0 Z " fill="#FEFDFE" transform="translate(684.7498546242714,308.7371752858162)"/>
<path d="M0 0 C1.11997848 0.00092179 2.23995695 0.00184359 3.39387417 0.00279331 C5.31436329 0.00073132 5.31436329 0.00073132 7.27365017 -0.00137234 C8.70568775 0.00216728 10.1377251 0.0058021 11.56976223 0.00952244 C13.06742762 0.0098043 14.56509314 0.00964659 16.06275845 0.00907993 C20.14109356 0.00879192 24.21939951 0.01468919 28.29772782 0.02165389 C32.55518812 0.02788687 36.81264902 0.02849118 41.07011318 0.0296793 C49.13784371 0.03279278 57.20556075 0.04100639 65.27328533 0.05102879 C74.45571963 0.06218941 83.63815456 0.06770025 92.82059395 0.07272422 C111.71477424 0.08318899 130.60894196 0.10078875 149.50311184 0.12304783 C147.69842434 4.88867283 147.69842434 4.88867283 145.94061184 6.99804783 C143.88330847 10.0392789 143.63089634 12.48118961 143.50311184 16.12304783 C144.11370061 19.08588049 144.11370061 19.08588049 146.50311184 21.12304783 C148.67144741 21.63437528 148.67144741 21.63437528 151.12811184 21.93554783 C157.50107227 22.87274789 161.2633015 26.46335289 165.50311184 31.12304783 C165.50311184 31.45304783 165.50311184 31.78304783 165.50311184 32.12304783 C162.65859008 32.56387491 159.81395803 33.00396926 156.96917629 33.44311619 C154.56383197 33.81481703 152.15872255 34.18804092 149.75384426 34.56274509 C139.54024742 36.14544634 139.54024742 36.14544634 135.18670559 36.65820408 C121.63381458 38.27575654 104.95166075 42.75847128 94.89268398 52.71746922 C91.17799585 54.90249896 87.57677422 54.52420188 83.34417629 54.47949314 C82.41860928 54.48153751 81.49304226 54.48358189 80.53942776 54.48568821 C77.48154831 54.48869533 74.4242084 54.47022423 71.36639309 54.45117283 C69.24458354 54.44811561 67.12277198 54.44623921 65.00096035 54.44549656 C60.55653092 54.44089428 56.11228276 54.42646845 51.66790676 54.40429783 C45.95770495 54.37596391 40.24764565 54.36508114 34.53738022 54.36061573 C30.15808073 54.35646923 25.77881033 54.34665906 21.39952564 54.33474064 C19.29308398 54.329026 17.18663951 54.32427127 15.08019352 54.32047367 C12.14469963 54.31363598 9.20932116 54.3000169 6.27386379 54.28418064 C5.39542309 54.28306278 4.51698238 54.28194492 3.61192226 54.28079319 C-2.38219933 54.23773666 -2.38219933 54.23773666 -3.49688816 53.12304783 C-3.59550414 51.5017736 -3.62487583 49.87622415 -3.62628269 48.25195408 C-3.62943485 47.2141782 -3.63258701 46.17640232 -3.63583469 45.10717869 C-3.63381046 43.9780405 -3.63178623 42.84890232 -3.62970066 41.68554783 C-3.63113575 39.95993626 -3.63113575 39.95993626 -3.63259983 38.19946384 C-3.63328185 35.76155639 -3.63142606 33.32364713 -3.62725925 30.88574314 C-3.62191134 27.13928265 -3.62720355 23.39294206 -3.63360691 19.64648533 C-3.63294613 17.2845059 -3.63166498 14.92252654 -3.62970066 12.56054783 C-3.63172489 11.43140965 -3.63374912 10.30227146 -3.63583469 9.13891697 C-3.63268253 8.10114109 -3.62953037 7.06336521 -3.62628269 5.99414158 C-3.6254871 5.07560398 -3.62469151 4.15706638 -3.6238718 3.21069431 C-3.43685109 0.13602173 -3.09412481 0.15247993 0 0 Z " fill="#FDFEFE" transform="translate(140.49688816070557,211.87695217132568)"/>
<path d="M0 0 C5.09599985 3.68052685 9.6600131 7.44301375 14 12 C19.7821357 10.33428541 24.92355797 7.6149709 30.25 4.875 C32.04500071 3.95207471 33.84179053 3.0326181 35.640625 2.1171875 C36.42985352 1.71097168 37.21908203 1.30475586 38.03222656 0.88623047 C40 0 40 0 42 0 C43.71514466 10.65934412 45.38338011 21.32526611 47 32 C47.15936035 33.04881348 47.3187207 34.09762695 47.48291016 35.17822266 C52.67341638 70.21875758 53.53047479 105.64317517 53 141 C43.40476309 141.04835999 33.83856459 140.97966482 24.25 140.5625 C23.21101563 140.52318359 22.17203125 140.48386719 21.1015625 140.44335938 C20.10382813 140.40146484 19.10609375 140.35957031 18.078125 140.31640625 C16.75409668 140.26141968 16.75409668 140.26141968 15.40332031 140.20532227 C13.16304718 140.01392957 11.15790366 139.61587297 9 139 C8.98598145 138.10027466 8.98598145 138.10027466 8.97167969 137.18237305 C8.60774388 117.6672071 7.37835338 98.22080946 6.0625 78.75 C5.97713989 77.46886322 5.89177979 76.18772644 5.80383301 74.86776733 C4.92856784 61.79899823 3.99510799 48.76298864 2.4440918 35.75537109 C1.82153295 30.49083003 1.33356023 25.21846008 0.875 19.9375 C0.78863281 18.99712891 0.70226562 18.05675781 0.61328125 17.08789062 C0.11234427 11.36687228 -0.08229245 5.7428375 0 0 Z " fill="#F8FAF9" transform="translate(313,250)"/>
<path d="M0 0 C0.9904834 0.00733154 1.9809668 0.01466309 3.00146484 0.0222168 C3.75637207 0.03164307 4.5112793 0.04106934 5.2890625 0.05078125 C10.82636966 23.40057647 15.42694335 46.91189875 19.1640625 70.61328125 C19.27347168 71.30008972 19.38288086 71.98689819 19.49560547 72.69451904 C19.80481476 74.64702041 20.10569561 76.60083514 20.40625 78.5546875 C20.57753418 79.66658447 20.74881836 80.77848145 20.92529297 81.92407227 C21.28295393 84.99827621 21.35482536 87.95905386 21.2890625 91.05078125 C22.6090625 91.05078125 23.9290625 91.05078125 25.2890625 91.05078125 C25.2890625 94.35078125 25.2890625 97.65078125 25.2890625 101.05078125 C8.4590625 101.05078125 -8.3709375 101.05078125 -25.7109375 101.05078125 C-31.89068482 70.15204465 -31.89068482 70.15204465 -31.8984375 54.92578125 C-31.91068359 53.683125 -31.92292969 52.44046875 -31.93554688 51.16015625 C-31.96086382 34.99106509 -30.2419666 19.11014702 -18.7734375 6.85546875 C-13.09455661 1.88644797 -7.48111042 -0.0718275 0 0 Z " fill="#FDFDFD" transform="translate(271.7109375,298.94921875)"/>
<path d="M0 0 C4.324855 2.20322802 7.60172751 4.75690252 10 9 C10.52942248 13.45162283 10.37906897 17.63354661 9.1796875 21.95703125 C8.68272621 25.16299072 8.68272621 25.16299072 10.95703125 27.921875 C11.88519879 28.8878827 12.83867041 29.83004251 13.8125 30.75 C14.31007813 31.24024658 14.80765625 31.73049316 15.3203125 32.2355957 C19.42656434 36.0267317 22.61084643 36.89903537 28.00390625 37.4375 C28.66261719 37.623125 29.32132812 37.80875 30 38 C31.4375 41.6875 31.4375 41.6875 31.96875 43.84765625 C33.83221139 47.73692604 37.78098291 49.24116329 41.390625 51.3515625 C44.94496385 53.59696818 46.3189764 55.15766034 48 59 C48.59346415 63.15424905 48.31684106 65.33991445 46.5 69.125 C40.64821204 75.85455616 31.57874872 79.45169545 23.75 83.4375 C22.67492187 84.00404297 21.59984375 84.57058594 20.4921875 85.15429688 C19.45835937 85.67958984 18.42453125 86.20488281 17.359375 86.74609375 C16.42577148 87.22747803 15.49216797 87.7088623 14.53027344 88.20483398 C12 89 12 89 9.84301758 88.29736328 C6.96701715 86.27284795 4.4713971 83.86354771 1.9375 81.4375 C-3.09557581 76.69544022 -8.24241899 72.23910191 -13.66015625 67.9375 C-16 66 -16 66 -17.99609375 63.8046875 C-20.40930091 61.63138983 -21.81059355 61.4458854 -25 61.125 C-28.88950651 60.46430096 -29.77399063 60.22600937 -32.6875 57.3125 C-34.23911818 53.39651125 -34.34433961 50.9137593 -33 47 C-30.74864927 43.07120143 -28.14168733 39.4241266 -25.5 35.75 C-24.11167514 33.7885135 -22.72612262 31.82506092 -21.34375 29.859375 C-20.41852539 28.56725098 -20.41852539 28.56725098 -19.47460938 27.24902344 C-17.8527534 24.98446899 -17.8527534 24.98446899 -17 22 C-17.4640625 21.13375 -17.4640625 21.13375 -17.9375 20.25 C-19.48856676 16.96538803 -19.36620916 14.60105674 -19 11 C-15.81464838 2.34887458 -9.0750769 -1.61298494 0 0 Z " fill="#2F2A3E" transform="translate(317,174)"/>
<path d="M0 0 C1.06922447 0.01078583 1.06922447 0.01078583 2.16004944 0.02178955 C2.91136642 0.0214975 3.66268341 0.02120544 4.43676758 0.02090454 C6.9258622 0.02230046 9.41465931 0.03787376 11.90370178 0.05352783 C13.62720069 0.05725704 15.35070171 0.06010444 17.07420349 0.06210327 C21.61494275 0.06974704 26.15555448 0.08940185 30.69624329 0.11151123 C35.32787857 0.1319537 39.95953441 0.14110156 44.59120178 0.15118408 C53.68240371 0.17264708 62.7735109 0.20679194 71.86463928 0.24884033 C71.86463928 2.24884033 71.86463928 2.24884033 70.50135803 3.62384033 C69.85811584 4.16009033 69.21487366 4.69634033 68.55213928 5.24884033 C65.26139789 8.03023219 62.11477932 10.90809693 58.98963928 13.87384033 C41.54376288 29.74910459 16.74715367 47.80538507 -7.13536072 51.24884033 C-7.18594801 44.30714011 -7.2210465 37.36548718 -7.245224 30.42364502 C-7.25529995 28.06067122 -7.26896101 25.69770994 -7.28623962 23.33477783 C-7.31041796 19.94412145 -7.32182771 16.55362949 -7.33067322 13.16290283 C-7.34099579 12.10141022 -7.35131836 11.0399176 -7.36195374 9.94625854 C-7.3621048 8.96539276 -7.36225586 7.98452698 -7.3624115 6.97393799 C-7.36907333 5.67488022 -7.36907333 5.67488022 -7.37586975 4.34957886 C-6.85135331 -0.23183698 -3.91790955 0.01655544 0 0 Z " fill="#FEFDFC" transform="translate(414.13536071777344,175.75115966796875)"/>
<path d="M0 0 C1.26930894 0.00276538 1.26930894 0.00276538 2.56426048 0.00558662 C3.53463753 0.0028373 4.50501457 0.00008797 5.50479698 -0.00274467 C7.10701355 0.00804115 7.10701355 0.00804115 8.74159813 0.01904488 C9.8635508 0.01875282 10.98550346 0.01846077 12.1414547 0.01815987 C15.86420384 0.0195575 19.58675488 0.03513922 23.30946922 0.05078316 C25.88493808 0.05451174 28.46040835 0.05735944 31.03587914 0.0593586 C37.13093825 0.06622469 43.22591515 0.08200087 49.32094324 0.10205758 C56.25917885 0.12439451 63.19741783 0.13540444 70.13568044 0.14544845 C84.40979433 0.16636653 98.68384799 0.20155627 112.95790672 0.24609566 C114.16063491 2.65155204 114.05862144 4.19606518 114.02040672 6.87109566 C114.01138329 7.68836128 114.00235985 8.50562691 113.99306297 9.34765816 C113.98146141 9.97414253 113.96985985 10.60062691 113.95790672 11.24609566 C111.54603988 12.45202908 110.04557595 12.36928484 107.35155296 12.36635017 C105.8959874 12.36841217 105.8959874 12.36841217 104.41101646 12.37051582 C102.8087999 12.36512291 102.8087999 12.36512291 101.17421532 12.35962105 C99.49128632 12.35984009 99.49128632 12.35984009 97.77435875 12.36006355 C94.05166783 12.35936475 90.32902644 12.35157381 86.60634422 12.34375191 C84.03087453 12.34188761 81.45540448 12.34046377 78.87993431 12.33946419 C72.78490351 12.33603115 66.68989326 12.32814304 60.59487021 12.3181147 C53.65662701 12.30694622 46.71838296 12.30144125 39.78013301 12.29641926 C25.50604796 12.28596024 11.23197798 12.26836537 -3.04209328 12.24609566 C-4.15654825 10.0171857 -4.20689614 8.7155446 -4.22959328 6.24609566 C-4.24377296 5.54484566 -4.25795265 4.84359566 -4.27256203 4.12109566 C-3.92280966 1.27565264 -2.80443653 0.33796676 0 0 Z " fill="#00934F" transform="translate(140.04209327697754,62.75390434265137)"/>
<path d="M0 0 C14.30766136 -0.04668014 28.61531094 -0.08183637 42.92303276 -0.10362434 C49.56606556 -0.11407935 56.20904735 -0.1282698 62.85205078 -0.15087891 C69.2581139 -0.17254614 75.66412784 -0.18455568 82.07022476 -0.18975449 C84.51915385 -0.19346127 86.96808012 -0.20069925 89.41698837 -0.21146011 C92.83648329 -0.22589367 96.25577269 -0.22798136 99.67529297 -0.22705078 C100.69668365 -0.23424133 101.71807434 -0.24143188 102.77041626 -0.24884033 C104.16287567 -0.24471634 104.16287567 -0.24471634 105.58346558 -0.24050903 C106.79746694 -0.24327441 106.79746694 -0.24327441 108.03599358 -0.24609566 C110 0 110 0 112 2 C112.56594717 8.22541888 112.56594717 8.22541888 110.75843143 10.69926739 C108.53351103 12.34506743 107.30462825 12.37480536 104.55259705 12.3742218 C103.18765358 12.38474327 103.18765358 12.38474327 101.7951355 12.39547729 C100.79918365 12.38783356 99.80323181 12.38018982 98.77709961 12.37231445 C97.72648849 12.37596512 96.67587738 12.37961578 95.59342957 12.38337708 C92.11290435 12.39149803 88.6328424 12.37786019 85.15234375 12.36328125 C82.74003601 12.36276287 80.32772785 12.36327971 77.91542053 12.36479187 C72.85720523 12.36470208 67.79914909 12.35425783 62.7409668 12.33618164 C56.24497013 12.31348225 49.74920592 12.31295187 43.2531805 12.31969929 C38.27163106 12.3230344 33.29013499 12.31641802 28.30859566 12.30657005 C25.91270794 12.30271077 23.5168143 12.30157284 21.120924 12.3031559 C17.77833535 12.30352515 14.43604923 12.29094592 11.09350586 12.2746582 C10.09552979 12.27713562 9.09755371 12.27961304 8.06933594 12.28216553 C7.16219345 12.27508072 6.25505096 12.26799591 5.32041931 12.26069641 C4.52973022 12.25864354 3.73904112 12.25659067 2.92439175 12.25447559 C1 12 1 12 -1 10 C-1.23046875 8.125 -1.23046875 8.125 -1.1875 6 C-1.18105469 5.29875 -1.17460937 4.5975 -1.16796875 3.875 C-1 2 -1 2 0 0 Z " fill="#CB8501" transform="translate(408,83)"/>
<path d="M0 0 C0.71902496 0.00247742 1.43804993 0.00495483 2.17886353 0.00750732 C3.31565048 -0.00015907 3.31565048 -0.00015907 4.47540283 -0.00798035 C6.98731319 -0.0219116 9.49895031 -0.02091713 12.01089478 -0.01861572 C13.75202538 -0.02250039 15.49315503 -0.02683458 17.23428345 -0.03160095 C20.88608877 -0.03907053 24.53779743 -0.03876633 28.18960571 -0.0335083 C32.87753872 -0.02770917 37.56507721 -0.04465165 42.25294495 -0.06785297 C45.8490939 -0.08255818 49.44514711 -0.08346648 53.0413208 -0.08034325 C54.77014956 -0.08085797 56.49898347 -0.0861238 58.2277832 -0.09615517 C60.64142791 -0.10844199 63.05429451 -0.10177559 65.46792603 -0.09014893 C66.18695099 -0.09779266 66.90597595 -0.1054364 67.64678955 -0.11331177 C69.63516235 -0.09205627 69.63516235 -0.09205627 72.82339478 0.28216553 C75.13671964 3.75215282 75.1629704 5.20725801 74.82339478 9.28216553 C74.16339478 10.27216553 73.50339478 11.26216553 72.82339478 12.28216553 C70.29107776 12.57939864 68.00243802 12.68142361 65.46792603 12.65447998 C64.71006805 12.65813065 63.95221008 12.66178131 63.17138672 12.6655426 C60.65933007 12.673667 58.14791468 12.66002278 55.63589478 12.64544678 C53.89476522 12.6449284 52.15363508 12.64544525 50.4125061 12.6469574 C46.76064332 12.64686759 43.10900091 12.63642085 39.45718384 12.61834717 C34.76930995 12.59565964 30.08175827 12.59511495 25.3938446 12.60186481 C21.79769004 12.60520167 18.20160932 12.59858008 14.60546875 12.58873558 C12.87665188 12.58487838 11.1478268 12.58373751 9.41900635 12.58532143 C7.00546536 12.58569109 4.59234196 12.57310003 2.17886353 12.55682373 C1.45983856 12.55930115 0.7408136 12.56177856 0 12.56433105 C-4.94786341 12.51090734 -4.94786341 12.51090734 -7.17660522 10.28216553 C-7.44223022 8.40716553 -7.44223022 8.40716553 -7.42660522 6.28216553 C-7.43176147 5.58091553 -7.43691772 4.87966553 -7.44223022 4.15716553 C-6.81584338 -0.26438866 -3.75070406 0.04049759 0 0 Z " fill="#B71C44" transform="translate(684.1766052246094,62.71783447265625)"/>
<path d="M0 0 C0.70810318 0.00247742 1.41620636 0.00495483 2.14576721 0.00750732 C2.89226532 0.00239639 3.63876343 -0.00271454 4.40788269 -0.00798035 C6.88252212 -0.02191268 9.35688417 -0.02091685 11.83155823 -0.01861572 C13.54787297 -0.02250075 15.26418675 -0.02683501 16.98049927 -0.03160095 C20.58103042 -0.03907106 24.18146352 -0.03876626 27.78199768 -0.0335083 C32.40033247 -0.02771352 37.01826623 -0.04464087 41.63653469 -0.06785297 C45.18211216 -0.08257193 48.72759266 -0.08346452 52.27319527 -0.08034325 C53.97607785 -0.08085742 55.67896572 -0.08611307 57.38181877 -0.09615517 C59.76173463 -0.10846654 62.14086431 -0.10176032 64.52076721 -0.09014893 C65.57988564 -0.10161453 65.57988564 -0.10161453 66.66040039 -0.11331177 C69.49602036 -0.08267057 71.44808365 -0.01920347 73.83950806 1.58277893 C75.6101435 4.42559237 75.19261477 7.04101229 74.89796448 10.28216553 C72.44090588 12.73922413 71.07495039 12.52439891 67.72135925 12.55322266 C67.00233429 12.54917419 66.28330933 12.54512573 65.54249573 12.54095459 C64.78463776 12.54445923 64.02677979 12.54796387 63.24595642 12.55157471 C60.73403334 12.56039682 58.22239056 12.55454127 55.71046448 12.54779053 C53.96933437 12.54913704 52.22820462 12.55107746 50.48707581 12.55358887 C46.83526536 12.55654078 43.18355264 12.55224036 39.53175354 12.54290771 C34.84389466 12.53151312 30.15626478 12.53807224 25.46841431 12.55005264 C21.87227138 12.55726945 18.276183 12.55498415 14.68003845 12.54979706 C12.95121738 12.54846006 11.2223914 12.55011002 9.49357605 12.55475616 C7.08006107 12.55981849 4.66692024 12.55211552 2.25343323 12.54095459 C1.17489578 12.54702728 1.17489578 12.54702728 0.0745697 12.55322266 C-4.87350656 12.51069449 -4.87350656 12.51069449 -7.10203552 10.28216553 C-7.36766052 8.40716553 -7.36766052 8.40716553 -7.35203552 6.28216553 C-7.35719177 5.58091553 -7.36234802 4.87966553 -7.36766052 4.15716553 C-6.74581833 -0.23230874 -3.73205422 0.04091093 0 0 Z " fill="#CA8500" transform="translate(414.10203552246094,62.71783447265625)"/>
<path d="M0 0 C5.53846154 3.07692308 5.53846154 3.07692308 7 6 C8.08649467 13.35706515 5.89964922 18.16888838 2.0625 24.3125 C1.56903076 25.13339111 1.07556152 25.95428223 0.56713867 26.80004883 C-3.54179781 33.52730231 -8.04512763 39.87063936 -13 46 C-19.52576241 41.2318928 -25.77352578 36.1505761 -32 31 C-27.82418336 25.4124136 -23.61321706 19.85287954 -19.375 14.3125 C-18.81554687 13.57966797 -18.25609375 12.84683594 -17.6796875 12.09179688 C-16.12429791 10.05768478 -14.56338946 8.02796665 -13 6 C-12.24976563 5.02417969 -11.49953125 4.04835937 -10.7265625 3.04296875 C-7.5706133 -0.69133313 -4.72947028 -0.39412252 0 0 Z " fill="#E6521A" transform="translate(527,137)"/>
<path d="M0 0 C0.8859575 4.58743524 1.7583036 9.17717845 2.6184082 13.76953125 C2.9125759 15.32980061 3.21038145 16.88938884 3.51196289 18.44824219 C3.94606929 20.69555004 4.36681696 22.94502306 4.78515625 25.1953125 C4.92156021 25.8861795 5.05796417 26.57704651 5.19850159 27.28884888 C5.95900406 31.46611683 6.12408737 34.88915843 5 39 C1.864561 42.51780961 -0.30999338 44.30096546 -5.0625 44.625 C-9.8825332 43.85991536 -10.87427178 42.65408986 -14 39 C-27.34700428 15.5296323 -27.34700428 15.5296323 -25.546875 6.8034668 C-25.36640625 6.20832275 -25.1859375 5.61317871 -25 5 C-21.39704301 4.16137685 -17.79244935 3.33001323 -14.1875 2.5 C-12.65125977 2.14228516 -12.65125977 2.14228516 -11.08398438 1.77734375 C-10.10107422 1.55175781 -9.11816406 1.32617188 -8.10546875 1.09375 C-7.19949951 0.88427734 -6.29353027 0.67480469 -5.36010742 0.45898438 C-3 0 -3 0 0 0 Z " fill="#E55119" transform="translate(242,375)"/>
<path d="M0 0 C5.75 0.875 5.75 0.875 8 2 C8.17160235 12.29158902 8.33809369 22.58325409 8.5 32.875 C8.51187725 33.62979393 8.5237545 34.38458786 8.53599167 35.16225433 C8.88508618 57.44270057 9.15309373 79.71635696 9 102 C5.37 102 1.74 102 -2 102 C-2.18025683 81.18158783 -1.64819356 60.39723646 -1.07287598 39.58911133 C-0.94976273 35.10960392 -0.83053817 30.62999295 -0.7109375 26.15039062 C-0.47765645 17.43349092 -0.24023325 8.71671087 0 0 Z " fill="#00C373" transform="translate(333,410)"/>
<path d="M0 0 C1.15249741 0.00222061 2.30499481 0.00444122 3.49241638 0.00672913 C5.4443264 0.00684242 5.4443264 0.00684242 7.43566895 0.00695801 C8.86661313 0.01206543 10.29755694 0.01728144 11.72850037 0.02259827 C13.18438672 0.02446249 14.64027369 0.02588637 16.09616089 0.02688599 C19.93488791 0.03071086 23.77357731 0.04054088 27.61228943 0.05158997 C31.52667227 0.06180474 35.44106117 0.06638375 39.35545349 0.07142639 C47.04101755 0.08216318 54.72655057 0.09923923 62.41209412 0.12025452 C63.5185722 2.33321068 63.6079778 3.66698151 63.66209412 6.12025452 C63.68787537 6.82150452 63.71365662 7.52275452 63.74021912 8.24525452 C63.63193787 8.86400452 63.52365662 9.48275452 63.41209412 10.12025452 C59.92039219 12.4480558 58.53698614 12.37301466 54.41184998 12.37904358 C53.17724533 12.3853479 51.94264069 12.39165222 50.67062378 12.39814758 C49.32272702 12.39456818 47.97483157 12.39046631 46.62693787 12.38587952 C45.24596081 12.38722669 43.86498422 12.38916766 42.48400879 12.39167786 C39.59142028 12.3946257 36.69895536 12.39034182 33.80638123 12.3809967 C30.09492397 12.36959156 26.38375562 12.3761703 22.67230892 12.38814163 C19.82162285 12.39536036 16.97100557 12.39307246 14.12031746 12.38788605 C12.75154651 12.38655013 11.38276936 12.38819525 10.01400566 12.39284515 C8.10365286 12.39791146 6.19327821 12.38882338 4.28294373 12.37904358 C3.19501022 12.37745239 2.10707672 12.37586121 0.98617554 12.3742218 C-1.58790588 12.12025452 -1.58790588 12.12025452 -3.58790588 10.12025452 C-3.81837463 7.99134827 -3.81837463 7.99134827 -3.77540588 5.55775452 C-3.76896057 4.75209045 -3.76251526 3.94642639 -3.75587463 3.11634827 C-3.49895312 0.06316469 -3.09191482 0.14367475 0 0 Z " fill="#00934F" transform="translate(139.58790588378906,82.87974548339844)"/>
<path d="M0 0 C0.66 0.66 1.32 1.32 2 2 C2.46019531 2.44988281 2.92039062 2.89976562 3.39453125 3.36328125 C4.5587792 4.55019097 5.67595297 5.78386564 6.76171875 7.04296875 C11.18382071 11.96737844 14.38370876 13.94856945 20.99609375 14.74609375 C23 15 23 15 24 16 C24.04063832 17.66617115 24.042721 19.33388095 24 21 C23.4225 20.690625 22.845 20.38125 22.25 20.0625 C20.15095893 19.07128616 18.24925862 18.52451199 16 18 C12.72648242 22.65716934 9.89909044 27.11667309 7.6875 32.375 C5.85151071 36.20792569 4.46455864 37.7464447 0.4375 39.1875 C-2.73514003 40.03976899 -4.94392219 40.27288795 -8 39 C-10.01029733 37.35750846 -11.87856605 35.7229757 -13.75 33.9375 C-14.25660156 33.46505859 -14.76320313 32.99261719 -15.28515625 32.50585938 C-16.52949613 31.34369289 -17.76558064 30.17269839 -19 29 C-17.73462626 25.54380179 -16.28395314 22.74420697 -14.1015625 19.78515625 C-13.53953125 19.01623047 -12.9775 18.24730469 -12.3984375 17.45507812 C-11.81320312 16.66552734 -11.22796875 15.87597656 -10.625 15.0625 C-9.4703567 13.4916181 -8.31668939 11.92001828 -7.1640625 10.34765625 C-6.62040039 9.60660645 -6.07673828 8.86555664 -5.51660156 8.10205078 C-3.60133195 5.4474353 -1.78705841 2.74221032 0 0 Z " fill="#E25019" transform="translate(324,197)"/>
<path d="M0 0 C1.47057839 0.00031709 2.94118001 0.01164091 4.41162109 0.03173828 C5.18565277 0.03456818 5.95968445 0.03739807 6.75717163 0.04031372 C9.23329016 0.05152325 11.70904909 0.07662875 14.18505859 0.10205078 C15.86213671 0.1120796 17.53922049 0.12120562 19.21630859 0.12939453 C23.33103082 0.15146504 27.44548371 0.18599977 31.56005859 0.22705078 C33.8504172 4.21756019 33.5783827 6.72945263 32.56005859 11.22705078 C29.51477641 12.74969187 26.33860613 12.38990616 22.99755859 12.39501953 C22.25046631 12.39834793 21.50337402 12.40167633 20.73364258 12.40510559 C19.15332658 12.41017044 17.57299989 12.41251405 15.99267578 12.41235352 C13.56964617 12.41454212 11.14707024 12.43270779 8.72412109 12.45166016 C7.19026849 12.4545937 5.65641372 12.45657876 4.12255859 12.45751953 C3.39544678 12.46470505 2.66833496 12.47189056 1.91918945 12.47929382 C-3.21111338 12.45587881 -3.21111338 12.45587881 -5.43994141 10.22705078 C-5.70556641 8.35205078 -5.70556641 8.35205078 -5.68994141 6.22705078 C-5.69509766 5.52580078 -5.70025391 4.82455078 -5.70556641 4.10205078 C-5.1769605 0.37071496 -3.50662829 0.2314524 0 0 Z " fill="#B71C44" transform="translate(682.43994140625,82.77294921875)"/>
<path d="M0 0 C2.97 0 5.94 0 9 0 C9.92947107 4.70203014 10.13223651 9.24812235 10.09765625 14.0234375 C10.0962413 14.76961334 10.09482635 15.51578918 10.09336853 16.28457642 C10.08780874 18.64809318 10.07526389 21.01151227 10.0625 23.375 C10.0574798 24.98567571 10.0529178 26.59635291 10.04882812 28.20703125 C10.03785251 32.13805799 10.02061596 36.06901248 10 40 C6.37 40 2.74 40 -1 40 C-1.19148936 13.08510638 -1.19148936 13.08510638 0 0 Z " fill="#0395F5" transform="translate(332,472)"/>
<path d="M0 0 C1.32 0.33 2.64 0.66 4 1 C4 3.31 4 5.62 4 8 C6.64 8 9.28 8 12 8 C11.67 8.99 11.34 9.98 11 11 C8.69 11 6.38 11 4 11 C4 13.31 4 15.62 4 18 C2.68 18 1.36 18 0 18 C0 15.69 0 13.38 0 11 C-2.31 11 -4.62 11 -7 11 C-7.33 10.01 -7.66 9.02 -8 8 C-5.36 8 -2.72 8 0 8 C0 5.36 0 2.72 0 0 Z " fill="#CC8703" transform="translate(415,280)"/>
<path d="M0 0 C0.99 0 1.98 0 3 0 C3 2.64 3 5.28 3 8 C5.64 8 8.28 8 11 8 C11 8.99 11 9.98 11 11 C8.36 11 5.72 11 3 11 C3 13.64 3 16.28 3 19 C2.01 19 1.02 19 0 19 C0 16.36 0 13.72 0 11 C-2.64 11 -5.28 11 -8 11 C-8 10.01 -8 9.02 -8 8 C-4.535 7.505 -4.535 7.505 -1 7 C-0.67 4.69 -0.34 2.38 0 0 Z " fill="#00934F" transform="translate(145,413)"/>
<path d="M0 0 C0.99 0 1.98 0 3 0 C3 2.64 3 5.28 3 8 C5.64 8 8.28 8 11 8 C11 8.99 11 9.98 11 11 C8.36 11 5.72 11 3 11 C3 13.64 3 16.28 3 19 C2.01 19 1.02 19 0 19 C-0.33 16.69 -0.66 14.38 -1 12 C-3.31 11.67 -5.62 11.34 -8 11 C-8 10.01 -8 9.02 -8 8 C-5.36 8 -2.72 8 0 8 C0 5.36 0 2.72 0 0 Z " fill="#B71C44" transform="translate(686,360)"/>
<path d="M0 0 C2.33294775 -0.04241723 4.66702567 -0.04092937 7 0 C8 1 8 1 8.0625 3.5625 C8.041875 4.366875 8.02125 5.17125 8 6 C4.63408134 4.55746343 2.48952921 2.66735273 0 0 Z " fill="#EFF6F3" transform="translate(340,212)"/>
<path d="M0 0 C2.02054804 1.64169528 4.02043058 3.30911778 6 5 C6 5.33 6 5.66 6 6 C4.02 6 2.04 6 0 6 C0 4.02 0 2.04 0 0 Z " fill="#E5F8F2" transform="translate(0,506)"/>
<path d="M0 0 C0.33 0 0.66 0 1 0 C1 1.98 1 3.96 1 6 C-0.98 6 -2.96 6 -5 6 C-3.35830472 3.97945196 -1.69088222 1.97956942 0 0 Z " fill="#E6F8F3" transform="translate(1023,506)"/>
<path d="M0 0 C1.98 0 3.96 0 6 0 C6 1.98 6 3.96 6 6 C3.97945196 4.35830472 1.97956942 2.69088222 0 1 C0 0.67 0 0.34 0 0 Z " fill="#E6F8F3" transform="translate(1018,0)"/>
<path d="M0 0 C1.98 0 3.96 0 6 0 C4.35830472 2.02054804 2.69088222 4.02043058 1 6 C0.67 6 0.34 6 0 6 C0 4.02 0 2.04 0 0 Z " fill="#E6F8F3" transform="translate(0,0)"/>
</svg>
